Ptolemy-GreatPrimer18-1.1.ufo
<glyph name="exclam" format="2">
	<advance width="216"/>
	<unicode hex="0021"/>
	<outline>
		<contour>
			<point x="90" y="204" type="line"/>
			<point x="126" y="209" type="line"/>
			<point x="163" y="709" type="line"/>
			<point x="160" y="710" type="line"/>
			<point x="120" y="689"/>
			<point x="82" y="672"/>
			<point x="48" y="657" type="curve"/>
		</contour>
		<contour>
			<point x="103" y="-23" type="curve"/>
			<point x="113" y="-23" type="line"/>
			<point x="123" y="14"/>
			<point x="151" y="42"/>
			<point x="186" y="54" type="curve"/>
			<point x="186" y="64" type="line"/>
			<point x="151" y="79"/>
			<point x="125" y="99"/>
			<point x="113" y="141" type="curve"/>
			<point x="103" y="141" type="line"/>
			<point x="91" y="99"/>
			<point x="65" y="79"/>
			<point x="30" y="64" type="curve"/>
			<point x="30" y="54" type="line"/>
			<point x="65" y="42"/>
			<point x="93" y="14"/>
		</contour>
	</outline>
</glyph>
<glyph name="quotesingle" format="2">
	<advance width="199"/>
	<unicode hex="0027"/>
	<outline>
		<contour>
			<point x="28" y="422" type="curve"/>
			<point x="41" y="403" type="line"/>
			<point x="96" y="431"/>
			<point x="137" y="488"/>
			<point x="137" y="545" type="curve"/>
			<point x="137" y="581"/>
			<point x="136" y="600"/>
			<point x="179" y="623" type="curve"/>
			<point x="179" y="633" type="line"/>
			<point x="144" y="647"/>
			<point x="112" y="679"/>
			<point x="103" y="710" type="curve"/>
			<point x="93" y="710" type="line"/>
			<point x="81" y="674"/>
			<point x="52" y="648"/>
			<point x="20" y="633" type="curve"/>
			<point x="20" y="623" type="line"/>
			<point x="56" y="608"/>
			<point x="76" y="577"/>
			<point x="76" y="531" type="curve"/>
			<point x="76" y="495"/>
			<point x="62" y="452"/>
		</contour>
	</outline>
</glyph>
<glyph name="parenleft" format="2">
	<advance width="321"/>
	<unicode hex="0028"/>
	<outline>
		<contour>
			<point x="243" y="-280" type="curve"/>
			<point x="243" y="-280" type="line"/>
			<point x="271" y="-258" type="line"/>
			<point x="172" y="-95"/>
			<point x="125" y="79"/>
			<point x="125" y="239" type="curve"/>
			<point x="125" y="429"/>
			<point x="191" y="608"/>
			<point x="271" y="732" type="curve"/>
			<point x="244" y="751" type="line"/>
			<point x="154" y="638"/>
			<point x="58" y="443"/>
			<point x="58" y="239" type="curve"/>
			<point x="58" y="19"/>
			<point x="158" y="-159"/>
		</contour>
	</outline>
</glyph>
<glyph name="parenright" format="2">
	<advance width="321"/>
	<unicode hex="0029"/>
	<outline>
		<contour>
			<point x="78" y="-280" type="line"/>
			<point x="163" y="-159"/>
			<point x="263" y="19"/>
			<point x="263" y="239" type="curve" smooth="yes"/>
			<point x="263" y="443"/>
			<point x="167" y="638"/>
			<point x="77" y="751" type="curve"/>
			<point x="50" y="732" type="line"/>
			<point x="130" y="608"/>
			<point x="196" y="429"/>
			<point x="196" y="239" type="curve" smooth="yes"/>
			<point x="196" y="79"/>
			<point x="149" y="-95"/>
			<point x="50" y="-258" type="curve"/>
		</contour>
	</outline>
</glyph>
<glyph name="comma" format="2">
	<advance width="199"/>
	<unicode hex="002C"/>
	<outline>
		<contour>
			<point x="41" y="-166" type="line"/>
			<point x="96" y="-138"/>
			<point x="137" y="-81"/>
			<point x="137" y="-24" type="curve" smooth="yes"/>
			<point x="137" y="12"/>
			<point x="136" y="29"/>
			<point x="179" y="54" type="curve"/>
			<point x="179" y="64" type="line"/>
			<point x="149" y="75"/>
			<point x="114" y="107"/>
			<point x="103" y="141" type="curve"/>
			<point x="93" y="141" type="line"/>
			<point x="84" y="106"/>
			<point x="48" y="76"/>
			<point x="20" y="64" type="curve"/>
			<point x="20" y="54" type="line"/>
			<point x="60" y="35"/>
			<point x="76" y="-2"/>
			<point x="76" y="-43" type="curve" smooth="yes"/>
			<point x="76" y="-74"/>
			<point x="62" y="-117"/>
			<point x="28" y="-147" type="curve"/>
		</contour>
	</outline>
</glyph>
<glyph name="hyphen" format="2">
	<advance width="286"/>
	<unicode hex="002D"/>
	<outline>
		<contour>
			<point x="24" y="106" type="line"/>
			<point x="26" y="105" type="line"/>
			<point x="266" y="242" type="line"/>
			<point x="261" y="331" type="line"/>
			<point x="258" y="332" type="line"/>
			<point x="20" y="184" type="line"/>
		</contour>
	</outline>
</glyph>
<glyph name="period" format="2">
	<advance width="196"/>
	<unicode hex="002E"/>
	<outline>
		<contour>
			<point x="93" y="-23" type="curve"/>
			<point x="93" y="-23" type="line"/>
			<point x="103" y="-23" type="line"/>
			<point x="113" y="14"/>
			<point x="141" y="42"/>
			<point x="176" y="54" type="curve"/>
			<point x="176" y="64" type="line"/>
			<point x="141" y="79"/>
			<point x="115" y="99"/>
			<point x="103" y="141" type="curve"/>
			<point x="93" y="141" type="line"/>
			<point x="81" y="99"/>
			<point x="55" y="79"/>
			<point x="20" y="64" type="curve"/>
			<point x="20" y="54" type="line"/>
			<point x="55" y="42"/>
			<point x="83" y="14"/>
		</contour>
	</outline>
</glyph>
<glyph name="zero" format="2">
	<advance width="497"/>
	<unicode hex="0030"/>
	<outline>
		<contour>
			<point x="244" y="-10" type="curve" smooth="yes"/>
			<point x="365" y="-10"/>
			<point x="467" y="81"/>
			<point x="467" y="207" type="curve" smooth="yes"/>
			<point x="467" y="337"/>
			<point x="359" y="420"/>
			<point x="247" y="420" type="curve" smooth="yes"/>
			<point x="137" y="420"/>
			<point x="30" y="329"/>
			<point x="30" y="203" type="curve" smooth="yes"/>
			<point x="30" y="77"/>
			<point x="122" y="-10"/>
		</contour>
		<contour>
			<point x="244" y="42" type="curve" smooth="yes"/>
			<point x="157" y="42"/>
			<point x="90" y="108"/>
			<point x="90" y="206" type="curve" smooth="yes"/>
			<point x="90" y="294"/>
			<point x="156" y="370"/>
			<point x="247" y="370" type="curve" smooth="yes"/>
			<point x="334" y="370"/>
			<point x="407" y="299"/>
			<point x="407" y="204" type="curve" smooth="yes"/>
			<point x="407" y="106"/>
			<point x="337" y="42"/>
		</contour>
	</outline>
</glyph>
<glyph name="one" format="2">
	<advance width="284"/>
	<unicode hex="0031"/>
	<outline>
		<contour>
			<point x="105" y="-10" type="curve"/>
			<point x="105" y="-10" type="line"/>
			<point x="152" y="4"/>
			<point x="187" y="14"/>
			<point x="234" y="25" type="curve"/>
			<point x="234" y="56" type="line"/>
			<point x="171" y="41" type="line"/>
			<point x="170" y="164"/>
			<point x="174" y="290"/>
			<point x="178" y="413" type="curve"/>
			<point x="173" y="418" type="line"/>
			<point x="126" y="406"/>
			<point x="97" y="399"/>
			<point x="50" y="385" type="curve"/>
			<point x="50" y="355" type="line"/>
			<point x="110" y="363" type="line"/>
			<point x="110" y="239"/>
			<point x="109" y="114"/>
		</contour>
	</outline>
</glyph>
<glyph name="two" format="2">
	<advance width="515"/>
	<unicode hex="0032"/>
	<outline>
		<contour>
			<point x="30" y="17" type="curve"/>
			<point x="33" y="0" type="line"/>
			<point x="433" y="0" type="line"/>
			<point x="495" y="96" type="line"/>
			<point x="479" y="102" type="line"/>
			<point x="447" y="69"/>
			<point x="427" y="59"/>
			<point x="368" y="59" type="curve"/>
			<point x="129" y="59" type="line"/>
			<point x="281" y="180" type="line" smooth="yes"/>
			<point x="334" y="222"/>
			<point x="346" y="263"/>
			<point x="346" y="293" type="curve"/>
			<point x="346" y="366"/>
			<point x="287" y="420"/>
			<point x="217" y="420" type="curve"/>
			<point x="183" y="420"/>
			<point x="155" y="402"/>
			<point x="112" y="374" type="curve"/>
			<point x="39" y="326" type="line"/>
			<point x="41" y="293" type="line"/>
			<point x="100" y="335"/>
			<point x="135" y="359"/>
			<point x="183" y="359" type="curve"/>
			<point x="235" y="359"/>
			<point x="281" y="326"/>
			<point x="281" y="274" type="curve"/>
			<point x="281" y="197"/>
			<point x="155" y="112"/>
		</contour>
	</outline>
</glyph>
<glyph name="three" format="2">
	<advance width="424"/>
	<unicode hex="0033"/>
	<outline>
		<contour>
			<point x="67" y="-280" type="curve"/>
			<point x="67" y="-280" type="line"/>
			<point x="200" y="-280"/>
			<point x="374" y="-95"/>
			<point x="374" y="24" type="curve"/>
			<point x="374" y="93"/>
			<point x="323" y="134"/>
			<point x="261" y="156" type="curve"/>
			<point x="334" y="202"/>
			<point x="369" y="247"/>
			<point x="369" y="310" type="curve"/>
			<point x="369" y="363"/>
			<point x="300" y="422"/>
			<point x="228" y="422" type="curve"/>
			<point x="211" y="422"/>
			<point x="102" y="376"/>
			<point x="45" y="343" type="curve"/>
			<point x="51" y="320" type="line"/>
			<point x="94" y="337"/>
			<point x="158" y="366"/>
			<point x="196" y="366" type="curve"/>
			<point x="244" y="366"/>
			<point x="294" y="325"/>
			<point x="294" y="273" type="curve"/>
			<point x="294" y="228"/>
			<point x="272" y="188"/>
			<point x="215" y="156" type="curve"/>
			<point x="57" y="66" type="line"/>
			<point x="62" y="39" type="line"/>
			<point x="106" y="64"/>
			<point x="157" y="96"/>
			<point x="203" y="96" type="curve"/>
			<point x="261" y="96"/>
			<point x="300" y="49"/>
			<point x="300" y="-4" type="curve"/>
			<point x="300" y="-103"/>
			<point x="185" y="-239"/>
			<point x="108" y="-239" type="curve"/>
			<point x="62" y="-239"/>
			<point x="52" y="-224"/>
			<point x="36" y="-209" type="curve"/>
			<point x="17" y="-211"/>
			<point x="-1" y="-217"/>
			<point x="-20" y="-231" type="curve"/>
			<point x="-10" y="-255"/>
			<point x="19" y="-280"/>
		</contour>
	</outline>
</glyph>
<glyph name="four" format="2">
	<advance width="530"/>
	<unicode hex="0034"/>
	<outline>
		<contour>
			<point x="306" y="-279" type="line"/>
			<point x="308" y="-280" type="line"/>
			<point x="372" y="-265" type="line"/>
			<point x="372" y="0" type="line"/>
			<point x="459" y="0" type="line"/>
			<point x="500" y="81" type="line"/>
			<point x="495" y="86" type="line"/>
			<point x="455" y="55"/>
			<point x="433" y="55"/>
			<point x="371" y="55" type="curve"/>
			<point x="373" y="410" type="line"/>
			<point x="368" y="415" type="line"/>
			<point x="0" y="48" type="line"/>
			<point x="0" y="0" type="line"/>
			<point x="306" y="0" type="line"/>
		</contour>
		<contour>
			<point x="304" y="55" type="line"/>
			<point x="53" y="55" type="line"/>
			<point x="304" y="306" type="line"/>
		</contour>
	</outline>
</glyph>
<glyph name="five" format="2">
	<advance width="425"/>
	<unicode hex="0035"/>
	<outline>
		<contour>
			<point x="69" y="-280" type="curve"/>
			<point x="69" y="-280" type="line"/>
			<point x="212" y="-280"/>
			<point x="375" y="-49"/>
			<point x="375" y="65" type="curve"/>
			<point x="375" y="139"/>
			<point x="330" y="167"/>
			<point x="279" y="167" type="curve"/>
			<point x="238" y="167"/>
			<point x="186" y="143"/>
			<point x="131" y="108" type="curve"/>
			<point x="131" y="312" type="line"/>
			<point x="303" y="372" type="line"/>
			<point x="307" y="343" type="line"/>
			<point x="333" y="345" type="line"/>
			<point x="332" y="395"/>
			<point x="333" y="427"/>
			<point x="333" y="457" type="curve"/>
			<point x="327" y="459" type="line"/>
			<point x="71" y="353" type="line"/>
			<point x="71" y="53" type="line"/>
			<point x="82" y="46" type="line"/>
			<point x="154" y="97"/>
			<point x="196" y="117"/>
			<point x="233" y="117" type="curve"/>
			<point x="276" y="117"/>
			<point x="304" y="92"/>
			<point x="304" y="29" type="curve"/>
			<point x="304" y="-126"/>
			<point x="161" y="-240"/>
			<point x="89" y="-240" type="curve"/>
			<point x="61" y="-240"/>
			<point x="42" y="-227"/>
			<point x="26" y="-209" type="curve"/>
			<point x="8" y="-216"/>
			<point x="-11" y="-226"/>
			<point x="-20" y="-236" type="curve"/>
			<point x="-3" y="-266"/>
			<point x="35" y="-280"/>
		</contour>
	</outline>
</glyph>
<glyph name="six" format="2">
	<advance width="465"/>
	<unicode hex="0036"/>
	<outline>
		<contour>
			<point x="230" y="-10" type="curve"/>
			<point x="230" y="-10" type="line"/>
			<point x="304" y="10"/>
			<point x="411" y="111"/>
			<point x="411" y="223" type="curve"/>
			<point x="411" y="326"/>
			<point x="335" y="385"/>
			<point x="235" y="395" type="curve"/>
			<point x="123" y="345" type="line"/>
			<point x="157" y="470"/>
			<point x="268" y="569"/>
			<point x="435" y="647" type="curve"/>
			<point x="435" y="655" type="line"/>
			<point x="392" y="675" type="line"/>
			<point x="166" y="558"/>
			<point x="50" y="388"/>
			<point x="50" y="225" type="curve"/>
			<point x="50" y="101"/>
			<point x="135" y="10"/>
		</contour>
		<contour>
			<point x="263" y="55" type="curve"/>
			<point x="263" y="55" type="line"/>
			<point x="186" y="55"/>
			<point x="112" y="138"/>
			<point x="112" y="262" type="curve"/>
			<point x="112" y="279"/>
			<point x="113" y="296"/>
			<point x="116" y="313" type="curve"/>
			<point x="134" y="325"/>
			<point x="169" y="339"/>
			<point x="210" y="339" type="curve"/>
			<point x="287" y="339"/>
			<point x="351" y="265"/>
			<point x="351" y="185" type="curve"/>
			<point x="351" y="111"/>
			<point x="316" y="55"/>
		</contour>
	</outline>
</glyph>
<glyph name="seven" format="2">
	<advance width="516"/>
	<unicode hex="0037"/>
	<outline>
		<contour>
			<point x="26" y="-153" type="line"/>
			<point x="402" y="248" type="line" smooth="yes"/>
			<point x="428" y="276"/>
			<point x="469" y="315"/>
			<point x="496" y="330" type="curve"/>
			<point x="489" y="370" type="line"/>
			<point x="453" y="366"/>
			<point x="418" y="365"/>
			<point x="382" y="365" type="curve" smooth="yes"/>
			<point x="43" y="365" type="line"/>
			<point x="21" y="268" type="line"/>
			<point x="30" y="263" type="line"/>
			<point x="45" y="282"/>
			<point x="80" y="305"/>
			<point x="161" y="305" type="curve" smooth="yes"/>
			<point x="405" y="305" type="line"/>
			<point x="19" y="-65" type="line"/>
			<point x="15" y="-150" type="line"/>
		</contour>
	</outline>
</glyph>
<glyph name="eight" format="2">
	<advance width="523"/>
	<unicode hex="0038"/>
	<outline>
		<contour>
			<point x="262" y="-10" type="curve" smooth="yes"/>
			<point x="375" y="-10"/>
			<point x="473" y="60"/>
			<point x="473" y="155" type="curve" smooth="yes"/>
			<point x="473" y="236"/>
			<point x="421" y="274"/>
			<point x="313" y="343" type="curve"/>
			<point x="384" y="388"/>
			<point x="457" y="431"/>
			<point x="457" y="498" type="curve" smooth="yes"/>
			<point x="457" y="589"/>
			<point x="354" y="635"/>
			<point x="262" y="635" type="curve" smooth="yes"/>
			<point x="169" y="635"/>
			<point x="61" y="588"/>
			<point x="61" y="492" type="curve" smooth="yes"/>
			<point x="61" y="420"/>
			<point x="132" y="371"/>
			<point x="210" y="324" type="curve"/>
			<point x="106" y="278"/>
			<point x="50" y="224"/>
			<point x="50" y="145" type="curve" smooth="yes"/>
			<point x="50" y="51"/>
			<point x="133" y="-10"/>
		</contour>
		<contour>
			<point x="262" y="25" type="curve" smooth="yes"/>
			<point x="179" y="25"/>
			<point x="120" y="87"/>
			<point x="120" y="155" type="curve" smooth="yes"/>
			<point x="120" y="209"/>
			<point x="147" y="259"/>
			<point x="237" y="308" type="curve"/>
			<point x="341" y="246"/>
			<point x="403" y="211"/>
			<point x="403" y="135" type="curve" smooth="yes"/>
			<point x="403" y="60"/>
			<point x="329" y="25"/>
		</contour>
		<contour>
			<point x="286" y="360" type="curve"/>
			<point x="215" y="405"/>
			<point x="125" y="443"/>
			<point x="125" y="510" type="curve" smooth="yes"/>
			<point x="125" y="567"/>
			<point x="190" y="600"/>
			<point x="262" y="600" type="curve" smooth="yes"/>
			<point x="345" y="600"/>
			<point x="392" y="548"/>
			<point x="392" y="495" type="curve" smooth="yes"/>
			<point x="392" y="440"/>
			<point x="338" y="392"/>
		</contour>
	</outline>
</glyph>
<glyph name="nine" format="2">
	<advance width="470"/>
	<unicode hex="0039"/>
	<outline>
		<contour>
			<point x="78" y="-225" type="line"/>
			<point x="304" y="-108"/>
			<point x="420" y="62"/>
			<point x="420" y="225" type="curve" smooth="yes"/>
			<point x="420" y="349"/>
			<point x="335" y="440"/>
			<point x="240" y="460" type="curve"/>
			<point x="166" y="440"/>
			<point x="59" y="339"/>
			<point x="59" y="227" type="curve" smooth="yes"/>
			<point x="59" y="124"/>
			<point x="135" y="65"/>
			<point x="235" y="55" type="curve"/>
			<point x="347" y="105" type="line"/>
			<point x="313" y="-20"/>
			<point x="202" y="-119"/>
			<point x="35" y="-197" type="curve"/>
			<point x="35" y="-205" type="line"/>
		</contour>
		<contour>
			<point x="260" y="111" type="curve" smooth="yes"/>
			<point x="183" y="111"/>
			<point x="119" y="185"/>
			<point x="119" y="265" type="curve" smooth="yes"/>
			<point x="119" y="339"/>
			<point x="154" y="395"/>
			<point x="207" y="395" type="curve" smooth="yes"/>
			<point x="284" y="395"/>
			<point x="358" y="312"/>
			<point x="358" y="188" type="curve" smooth="yes"/>
			<point x="358" y="171"/>
			<point x="357" y="154"/>
			<point x="354" y="137" type="curve"/>
			<point x="336" y="125"/>
			<point x="301" y="111"/>
		</contour>
	</outline>
</glyph>
<glyph name="colon" format="2">
	<advance width="196"/>
	<unicode hex="003A"/>
	<outline>
		<contour>
			<point x="93" y="297" type="curve"/>
			<point x="93" y="297" type="line"/>
			<point x="103" y="297" type="line"/>
			<point x="113" y="334"/>
			<point x="141" y="362"/>
			<point x="176" y="374" type="curve"/>
			<point x="176" y="384" type="line"/>
			<point x="141" y="399"/>
			<point x="115" y="419"/>
			<point x="103" y="461" type="curve"/>
			<point x="93" y="461" type="line"/>
			<point x="81" y="419"/>
			<point x="55" y="399"/>
			<point x="20" y="384" type="curve"/>
			<point x="20" y="374" type="line"/>
			<point x="55" y="362"/>
			<point x="83" y="334"/>
		</contour>
		<contour>
			<point x="93" y="-23" type="curve"/>
			<point x="93" y="-23" type="line"/>
			<point x="103" y="-23" type="line"/>
			<point x="113" y="14"/>
			<point x="141" y="42"/>
			<point x="176" y="54" type="curve"/>
			<point x="176" y="64" type="line"/>
			<point x="141" y="79"/>
			<point x="115" y="99"/>
			<point x="103" y="141" type="curve"/>
			<point x="93" y="141" type="line"/>
			<point x="81" y="99"/>
			<point x="55" y="79"/>
			<point x="20" y="64" type="curve"/>
			<point x="20" y="54" type="line"/>
			<point x="55" y="42"/>
			<point x="83" y="14"/>
		</contour>
	</outline>
</glyph>
<glyph name="semicolon" format="2">
	<advance width="201"/>
	<unicode hex="003B"/>
	<outline>
		<contour>
			<point x="30" y="-147" type="curve"/>
			<point x="43" y="-166" type="line"/>
			<point x="98" y="-138"/>
			<point x="139" y="-81"/>
			<point x="139" y="-24" type="curve"/>
			<point x="139" y="12"/>
			<point x="138" y="29"/>
			<point x="181" y="54" type="curve"/>
			<point x="181" y="64" type="line"/>
			<point x="151" y="75"/>
			<point x="116" y="107"/>
			<point x="105" y="141" type="curve"/>
			<point x="95" y="141" type="line"/>
			<point x="86" y="106"/>
			<point x="50" y="76"/>
			<point x="22" y="64" type="curve"/>
			<point x="22" y="54" type="line"/>
			<point x="62" y="35"/>
			<point x="78" y="-2"/>
			<point x="78" y="-43" type="curve"/>
			<point x="78" y="-74"/>
			<point x="64" y="-117"/>
		</contour>
		<contour>
			<point x="93" y="296" type="curve"/>
			<point x="93" y="296" type="line"/>
			<point x="103" y="296" type="line"/>
			<point x="113" y="333"/>
			<point x="141" y="361"/>
			<point x="176" y="373" type="curve"/>
			<point x="176" y="383" type="line"/>
			<point x="141" y="398"/>
			<point x="115" y="418"/>
			<point x="103" y="460" type="curve"/>
			<point x="93" y="460" type="line"/>
			<point x="81" y="418"/>
			<point x="55" y="398"/>
			<point x="20" y="383" type="curve"/>
			<point x="20" y="373" type="line"/>
			<point x="55" y="361"/>
			<point x="83" y="333"/>
		</contour>
	</outline>
</glyph>
<glyph name="question" format="2">
	<advance width="277"/>
	<unicode hex="003F"/>
	<outline>
		<contour>
			<point x="77" y="351" type="curve"/>
			<point x="77" y="197" type="line"/>
			<point x="135" y="212" type="line"/>
			<point x="127" y="325" type="line"/>
			<point x="193" y="366"/>
			<point x="267" y="426"/>
			<point x="267" y="522" type="curve"/>
			<point x="267" y="632"/>
			<point x="176" y="710"/>
			<point x="20" y="710" type="curve"/>
			<point x="49" y="597" type="line"/>
			<point x="127" y="606"/>
			<point x="197" y="582"/>
			<point x="197" y="504" type="curve"/>
			<point x="197" y="424"/>
			<point x="130" y="377"/>
		</contour>
		<contour>
			<point x="106" y="-23" type="curve"/>
			<point x="106" y="-23" type="line"/>
			<point x="116" y="-23" type="line"/>
			<point x="126" y="14"/>
			<point x="154" y="42"/>
			<point x="189" y="54" type="curve"/>
			<point x="189" y="64" type="line"/>
			<point x="154" y="79"/>
			<point x="128" y="99"/>
			<point x="116" y="141" type="curve"/>
			<point x="106" y="141" type="line"/>
			<point x="94" y="99"/>
			<point x="68" y="79"/>
			<point x="33" y="64" type="curve"/>
			<point x="33" y="54" type="line"/>
			<point x="68" y="42"/>
			<point x="96" y="14"/>
		</contour>
	</outline>
</glyph>
<glyph name="A" format="2">
	<advance width="715"/>
	<unicode hex="0041"/>
	<outline>
		<contour>
			<point x="5" y="10" type="line"/>
			<point x="5" y="0" type="line"/>
			<point x="146" y="0" type="line"/>
			<point x="146" y="35" type="line"/>
			<point x="71" y="35" type="line"/>
			<point x="186" y="300" type="line"/>
			<point x="453" y="300" type="line"/>
			<point x="595" y="35" type="line"/>
			<point x="534" y="35" type="line"/>
			<point x="534" y="0" type="line"/>
			<point x="710" y="0" type="line"/>
			<point x="710" y="10" type="line"/>
			<point x="585" y="241"/>
			<point x="462" y="477"/>
			<point x="342" y="710" type="curve"/>
			<point x="314" y="704" type="line"/>
		</contour>
		<contour>
			<point x="435" y="336" type="line"/>
			<point x="202" y="336" type="line"/>
			<point x="310" y="585" type="line"/>
		</contour>
	</outline>
</glyph>
<glyph name="B" format="2">
	<advance width="627"/>
	<unicode hex="0042"/>
	<outline>
		<contour>
			<point x="323" y="-3" type="curve" smooth="yes"/>
			<point x="531" y="-3"/>
			<point x="597" y="95"/>
			<point x="597" y="200" type="curve" smooth="yes"/>
			<point x="597" y="311"/>
			<point x="511" y="380"/>
			<point x="394" y="396" type="curve"/>
			<point x="444" y="413"/>
			<point x="507" y="453"/>
			<point x="507" y="537" type="curve" smooth="yes"/>
			<point x="507" y="627"/>
			<point x="420" y="701"/>
			<point x="291" y="701" type="curve" smooth="yes"/>
			<point x="217" y="701"/>
			<point x="127" y="699"/>
			<point x="40" y="700" type="curve"/>
			<point x="40" y="665" type="line"/>
			<point x="93" y="665" type="line"/>
			<point x="93" y="35" type="line"/>
			<point x="52" y="35" type="line"/>
			<point x="52" y="0" type="line"/>
			<point x="138" y="2"/>
			<point x="237" y="-3"/>
		</contour>
		<contour>
			<point x="178" y="35" type="line"/>
			<point x="178" y="359" type="line"/>
			<point x="213" y="363"/>
			<point x="251" y="364"/>
			<point x="288" y="364" type="curve" smooth="yes"/>
			<point x="425" y="364"/>
			<point x="511" y="292"/>
			<point x="511" y="194" type="curve" smooth="yes"/>
			<point x="511" y="97"/>
			<point x="444" y="35"/>
			<point x="319" y="35" type="curve" smooth="yes"/>
		</contour>
		<contour>
			<point x="241" y="392" type="curve" smooth="yes"/>
			<point x="220" y="392"/>
			<point x="199" y="393"/>
			<point x="178" y="396" type="curve"/>
			<point x="178" y="661" type="line"/>
			<point x="207" y="665"/>
			<point x="237" y="666"/>
			<point x="266" y="666" type="curve" smooth="yes"/>
			<point x="373" y="666"/>
			<point x="426" y="613"/>
			<point x="426" y="530" type="curve" smooth="yes"/>
			<point x="426" y="447"/>
			<point x="358" y="392"/>
		</contour>
	</outline>
</glyph>
<glyph name="C" format="2">
	<advance width="652"/>
	<unicode hex="0043"/>
	<outline>
		<contour>
			<point x="420" y="-11" type="curve"/>
			<point x="420" y="-11" type="line"/>
			<point x="502" y="-11"/>
			<point x="565" y="17"/>
			<point x="608" y="36" type="curve"/>
			<point x="609" y="73"/>
			<point x="613" y="103"/>
			<point x="617" y="142" type="curve"/>
			<point x="586" y="144" type="line"/>
			<point x="581" y="118"/>
			<point x="574" y="86"/>
			<point x="563" y="72" type="curve"/>
			<point x="545" y="53"/>
			<point x="494" y="29"/>
			<point x="435" y="29" type="curve"/>
			<point x="275" y="29"/>
			<point x="135" y="175"/>
			<point x="135" y="355" type="curve"/>
			<point x="135" y="535"/>
			<point x="255" y="670"/>
			<point x="435" y="670" type="curve"/>
			<point x="496" y="670"/>
			<point x="547" y="646"/>
			<point x="567" y="622" type="curve"/>
			<point x="571" y="600"/>
			<point x="571" y="577"/>
			<point x="571" y="555" type="curve"/>
			<point x="606" y="555" type="line"/>
			<point x="606" y="663" type="line"/>
			<point x="556" y="692"/>
			<point x="503" y="710"/>
			<point x="435" y="710" type="curve"/>
			<point x="225" y="710"/>
			<point x="40" y="564"/>
			<point x="40" y="354" type="curve"/>
			<point x="40" y="134"/>
			<point x="220" y="-11"/>
		</contour>
	</outline>
</glyph>
<glyph name="D" format="2">
	<advance width="750"/>
	<unicode hex="0044"/>
	<outline>
		<contour>
			<point x="356" y="-3" type="curve" smooth="yes"/>
			<point x="541" y="-3"/>
			<point x="710" y="114"/>
			<point x="710" y="339" type="curve" smooth="yes"/>
			<point x="710" y="578"/>
			<point x="541" y="704"/>
			<point x="320" y="704" type="curve" smooth="yes"/>
			<point x="203" y="704"/>
			<point x="118" y="698"/>
			<point x="41" y="702" type="curve"/>
			<point x="40" y="667" type="line"/>
			<point x="95" y="665" type="line"/>
			<point x="99" y="463"/>
			<point x="99" y="236"/>
			<point x="95" y="34" type="curve"/>
			<point x="52" y="34" type="line"/>
			<point x="52" y="-1" type="line"/>
			<point x="159" y="-1"/>
			<point x="229" y="-3"/>
		</contour>
		<contour>
			<point x="297" y="32" type="curve" smooth="yes"/>
			<point x="260" y="32"/>
			<point x="222" y="33"/>
			<point x="185" y="36" type="curve"/>
			<point x="181" y="240"/>
			<point x="181" y="465"/>
			<point x="185" y="669" type="curve"/>
			<point x="271" y="669" type="line" smooth="yes"/>
			<point x="510" y="669"/>
			<point x="615" y="549"/>
			<point x="615" y="349" type="curve" smooth="yes"/>
			<point x="615" y="169"/>
			<point x="510" y="32"/>
		</contour>
	</outline>
</glyph>
<glyph name="E" format="2">
	<advance width="602"/>
	<unicode hex="0045"/>
	<outline>
		<contour>
			<point x="45" y="35" type="line"/>
			<point x="45" y="0" type="line"/>
			<point x="572" y="0" type="line"/>
			<point x="572" y="112" type="line"/>
			<point x="537" y="112" type="line"/>
			<point x="530" y="60" type="line"/>
			<point x="173" y="60" type="line"/>
			<point x="173" y="335" type="line"/>
			<point x="429" y="335" type="line"/>
			<point x="429" y="268" type="line"/>
			<point x="464" y="268" type="line"/>
			<point x="464" y="450" type="line"/>
			<point x="429" y="450" type="line"/>
			<point x="429" y="390" type="line"/>
			<point x="173" y="390" type="line"/>
			<point x="173" y="646" type="line"/>
			<point x="507" y="646" type="line"/>
			<point x="510" y="585" type="line"/>
			<point x="545" y="585" type="line"/>
			<point x="545" y="701" type="line"/>
			<point x="40" y="701" type="line"/>
			<point x="40" y="666" type="line"/>
			<point x="86" y="666" type="line"/>
			<point x="89" y="462"/>
			<point x="89" y="239"/>
			<point x="86" y="35" type="curve"/>
		</contour>
	</outline>
</glyph>
<glyph name="F" format="2">
	<advance width="564"/>
	<unicode hex="0046"/>
	<outline>
		<contour>
			<point x="50" y="35" type="line"/>
			<point x="50" y="0" type="line"/>
			<point x="285" y="0" type="line"/>
			<point x="285" y="35" type="line"/>
			<point x="180" y="35" type="line"/>
			<point x="180" y="335" type="line"/>
			<point x="428" y="335" type="line"/>
			<point x="430" y="270" type="line"/>
			<point x="464" y="270" type="line"/>
			<point x="464" y="450" type="line"/>
			<point x="429" y="450" type="line"/>
			<point x="427" y="390" type="line"/>
			<point x="180" y="390" type="line"/>
			<point x="180" y="640" type="line"/>
			<point x="524" y="640" type="line"/>
			<point x="524" y="557" type="line"/>
			<point x="559" y="557" type="line"/>
			<point x="558" y="700" type="line"/>
			<point x="40" y="700" type="line"/>
			<point x="40" y="665" type="line"/>
			<point x="95" y="665" type="line"/>
			<point x="98" y="465"/>
			<point x="98" y="235"/>
			<point x="95" y="35" type="curve"/>
		</contour>
	</outline>
</glyph>
<glyph name="G" format="2">
	<advance width="667"/>
	<unicode hex="0047"/>
	<outline>
		<contour>
			<point x="413" y="-10" type="curve"/>
			<point x="413" y="-10" type="line"/>
			<point x="488" y="-10"/>
			<point x="572" y="16"/>
			<point x="627" y="31" type="curve"/>
			<point x="627" y="390" type="line"/>
			<point x="453" y="390" type="line"/>
			<point x="453" y="355" type="line"/>
			<point x="547" y="353" type="line"/>
			<point x="547" y="62" type="line"/>
			<point x="525" y="46"/>
			<point x="462" y="30"/>
			<point x="413" y="30" type="curve"/>
			<point x="243" y="30"/>
			<point x="135" y="170"/>
			<point x="135" y="350" type="curve"/>
			<point x="135" y="530"/>
			<point x="263" y="670"/>
			<point x="443" y="670" type="curve"/>
			<point x="495" y="670"/>
			<point x="551" y="659"/>
			<point x="582" y="630" type="curve"/>
			<point x="582" y="579" type="line"/>
			<point x="620" y="582" type="line"/>
			<point x="619" y="682" type="line"/>
			<point x="580" y="694"/>
			<point x="518" y="710"/>
			<point x="443" y="710" type="curve"/>
			<point x="223" y="710"/>
			<point x="40" y="560"/>
			<point x="40" y="350" type="curve"/>
			<point x="40" y="140"/>
			<point x="188" y="-10"/>
		</contour>
	</outline>
</glyph>
<glyph name="H" format="2">
	<advance width="781"/>
	<unicode hex="0048"/>
	<outline>
		<contour>
			<point x="80" y="0" type="curve"/>
			<point x="80" y="0" type="line"/>
			<point x="230" y="0" type="line"/>
			<point x="230" y="35" type="line"/>
			<point x="170" y="35" type="line"/>
			<point x="170" y="334" type="line"/>
			<point x="611" y="334" type="line"/>
			<point x="611" y="35" type="line"/>
			<point x="551" y="35" type="line"/>
			<point x="551" y="0" type="line"/>
			<point x="701" y="0" type="line"/>
			<point x="696" y="233"/>
			<point x="696" y="467"/>
			<point x="701" y="700" type="curve"/>
			<point x="551" y="700" type="line"/>
			<point x="551" y="665" type="line"/>
			<point x="611" y="665" type="line"/>
			<point x="611" y="384" type="line"/>
			<point x="170" y="384" type="line"/>
			<point x="170" y="665" type="line"/>
			<point x="230" y="667" type="line"/>
			<point x="230" y="700" type="line"/>
			<point x="80" y="700" type="line"/>
			<point x="85" y="467"/>
			<point x="85" y="233"/>
		</contour>
	</outline>
</glyph>
<glyph name="I" format="2">
	<advance width="315"/>
	<unicode hex="0049"/>
	<outline>
		<contour>
			<point x="40" y="0" type="line"/>
			<point x="275" y="0" type="line"/>
			<point x="275" y="35" type="line"/>
			<point x="200" y="35" type="line"/>
			<point x="198" y="235"/>
			<point x="198" y="465"/>
			<point x="200" y="665" type="curve"/>
			<point x="250" y="665" type="line"/>
			<point x="250" y="700" type="line"/>
			<point x="45" y="700" type="line"/>
			<point x="45" y="665" type="line"/>
			<point x="115" y="665" type="line"/>
			<point x="117" y="465"/>
			<point x="117" y="236"/>
			<point x="115" y="36" type="curve"/>
			<point x="40" y="35" type="line"/>
		</contour>
	</outline>
</glyph>
<glyph name="J" format="2">
	<advance width="282"/>
	<unicode hex="004A"/>
	<outline>
		<contour>
			<point x="-72" y="-261" type="line"/>
			<point x="101" y="-163"/>
			<point x="186" y="-122"/>
			<point x="185" y="42" type="curve" smooth="yes"/>
			<point x="183" y="284"/>
			<point x="183" y="505"/>
			<point x="186" y="665" type="curve"/>
			<point x="252" y="665" type="line"/>
			<point x="252" y="700" type="line"/>
			<point x="25" y="700" type="line"/>
			<point x="25" y="665" type="line"/>
			<point x="97" y="665" type="line"/>
			<point x="101" y="490"/>
			<point x="106" y="238"/>
			<point x="102" y="33" type="curve" smooth="yes"/>
			<point x="100" y="-92"/>
			<point x="40" y="-146"/>
			<point x="-90" y="-234" type="curve"/>
		</contour>
	</outline>
</glyph>
<glyph name="K" format="2">
	<advance width="703"/>
	<unicode hex="004B"/>
	<outline>
		<contour>
			<point x="598" y="-9" type="curve"/>
			<point x="602" y="-10" type="line"/>
			<point x="637" y="22"/>
			<point x="670" y="53"/>
			<point x="703" y="81" type="curve"/>
			<point x="678" y="108" type="line"/>
			<point x="637" y="78" type="line"/>
			<point x="536" y="177"/>
			<point x="437" y="259"/>
			<point x="340" y="326" type="curve"/>
			<point x="604" y="566" type="line"/>
			<point x="650" y="569" type="line"/>
			<point x="650" y="602" type="line"/>
			<point x="428" y="602" type="line"/>
			<point x="428" y="569" type="line"/>
			<point x="508" y="569" type="line"/>
			<point x="232" y="316" type="line"/>
			<point x="231" y="317" type="line"/>
			<point x="231" y="446"/>
			<point x="231" y="624"/>
			<point x="235" y="753" type="curve"/>
			<point x="220" y="760" type="line"/>
			<point x="156" y="722"/>
			<point x="95" y="685"/>
			<point x="30" y="651" type="curve"/>
			<point x="45" y="620" type="line"/>
			<point x="151" y="670" type="line"/>
			<point x="151" y="298" type="line"/>
			<point x="63" y="260" type="line"/>
			<point x="64" y="230" type="line"/>
			<point x="151" y="262" type="line"/>
			<point x="151" y="35" type="line"/>
			<point x="53" y="35" type="line"/>
			<point x="53" y="0" type="line"/>
			<point x="332" y="0" type="line"/>
			<point x="332" y="35" type="line"/>
			<point x="231" y="35" type="line"/>
			<point x="231" y="300" type="line"/>
			<point x="234" y="302" type="line"/>
			<point x="363" y="220"/>
			<point x="488" y="114"/>
		</contour>
	</outline>
</glyph>
<glyph name="L" format="2">
	<advance width="624"/>
	<unicode hex="004C"/>
	<outline>
		<contour>
			<point x="592" y="-3" type="curve"/>
			<point x="592" y="-3" type="line"/>
			<point x="614" y="107" type="line"/>
			<point x="582" y="112" type="line"/>
			<point x="561" y="55" type="line"/>
			<point x="173" y="55" type="line"/>
			<point x="170" y="252"/>
			<point x="170" y="465"/>
			<point x="173" y="662" type="curve"/>
			<point x="250" y="665" type="line"/>
			<point x="250" y="700" type="line"/>
			<point x="40" y="700" type="line"/>
			<point x="40" y="665" type="line"/>
			<point x="88" y="662" type="line"/>
			<point x="91" y="460"/>
			<point x="91" y="243"/>
			<point x="88" y="41" type="curve"/>
			<point x="44" y="35" type="line"/>
			<point x="44" y="0" type="line"/>
			<point x="227" y="2"/>
			<point x="409" y="1"/>
		</contour>
	</outline>
</glyph>
<glyph name="M" format="2">
	<advance width="908"/>
	<unicode hex="004D"/>
	<outline>
		<contour>
			<point x="453" y="-10" type="curve"/>
			<point x="453" y="-10" type="line"/>
			<point x="464" y="-10" type="line"/>
			<point x="550" y="184"/>
			<point x="640" y="361"/>
			<point x="736" y="553" type="curve"/>
			<point x="736" y="35" type="line"/>
			<point x="677" y="35" type="line"/>
			<point x="677" y="0" type="line"/>
			<point x="867" y="0" type="line"/>
			<point x="867" y="35" type="line"/>
			<point x="826" y="35" type="line"/>
			<point x="826" y="665" type="line"/>
			<point x="868" y="665" type="line"/>
			<point x="868" y="700" type="line"/>
			<point x="685" y="700" type="line"/>
			<point x="685" y="665" type="line"/>
			<point x="739" y="665" type="line"/>
			<point x="475" y="128" type="line"/>
			<point x="392" y="293"/>
			<point x="284" y="503"/>
			<point x="193" y="665" type="curve"/>
			<point x="255" y="665" type="line"/>
			<point x="255" y="700" type="line"/>
			<point x="40" y="700" type="line"/>
			<point x="40" y="665" type="line"/>
			<point x="99" y="665" type="line"/>
			<point x="99" y="35" type="line"/>
			<point x="40" y="35" type="line"/>
			<point x="40" y="0" type="line"/>
			<point x="206" y="0" type="line"/>
			<point x="206" y="35" type="line"/>
			<point x="149" y="35" type="line"/>
			<point x="149" y="569" type="line"/>
			<point x="250" y="387"/>
			<point x="352" y="193"/>
		</contour>
	</outline>
</glyph>
<glyph name="N" format="2">
	<advance width="792"/>
	<unicode hex="004E"/>
	<outline>
		<contour>
			<point x="40" y="35" type="line"/>
			<point x="40" y="0" type="line"/>
			<point x="210" y="0" type="line"/>
			<point x="210" y="35" type="line"/>
			<point x="150" y="35" type="line"/>
			<point x="150" y="634" type="line"/>
			<point x="330" y="429"/>
			<point x="497" y="214"/>
			<point x="656" y="0" type="curve"/>
			<point x="697" y="0" type="line"/>
			<point x="697" y="666" type="line"/>
			<point x="752" y="666" type="line"/>
			<point x="752" y="700" type="line"/>
			<point x="587" y="700" type="line"/>
			<point x="587" y="666" type="line"/>
			<point x="647" y="666" type="line"/>
			<point x="647" y="169" type="line"/>
			<point x="522" y="339"/>
			<point x="386" y="507"/>
			<point x="243" y="668" type="curve"/>
			<point x="289" y="667" type="line"/>
			<point x="289" y="700" type="line"/>
			<point x="45" y="700" type="line"/>
			<point x="45" y="668" type="line"/>
			<point x="100" y="667" type="line"/>
			<point x="100" y="35" type="line"/>
		</contour>
	</outline>
</glyph>
<glyph name="O" format="2">
	<advance width="836"/>
	<unicode hex="004F"/>
	<outline>
		<contour>
			<point x="418" y="-11" type="curve"/>
			<point x="418" y="-11" type="line"/>
			<point x="606" y="-11"/>
			<point x="796" y="111"/>
			<point x="796" y="349" type="curve"/>
			<point x="796" y="587"/>
			<point x="606" y="709"/>
			<point x="418" y="709" type="curve"/>
			<point x="230" y="709"/>
			<point x="40" y="584"/>
			<point x="40" y="346" type="curve"/>
			<point x="40" y="118"/>
			<point x="230" y="-11"/>
		</contour>
		<contour>
			<point x="418" y="24" type="curve"/>
			<point x="418" y="24" type="line"/>
			<point x="246" y="24"/>
			<point x="135" y="164"/>
			<point x="135" y="347" type="curve"/>
			<point x="135" y="528"/>
			<point x="246" y="674"/>
			<point x="418" y="674" type="curve"/>
			<point x="590" y="674"/>
			<point x="701" y="538"/>
			<point x="701" y="357" type="curve"/>
			<point x="701" y="174"/>
			<point x="590" y="24"/>
		</contour>
	</outline>
</glyph>
<glyph name="P" format="2">
	<advance width="566"/>
	<unicode hex="0050"/>
	<outline>
		<contour>
			<point x="40" y="35" type="line"/>
			<point x="40" y="0" type="line"/>
			<point x="255" y="0" type="line"/>
			<point x="255" y="35" type="line"/>
			<point x="173" y="35" type="line"/>
			<point x="173" y="246" type="line"/>
			<point x="205" y="239"/>
			<point x="264" y="225"/>
			<point x="316" y="225" type="curve"/>
			<point x="445" y="225"/>
			<point x="546" y="299"/>
			<point x="546" y="437" type="curve"/>
			<point x="546" y="577"/>
			<point x="408" y="703"/>
			<point x="302" y="703" type="curve"/>
			<point x="225" y="703"/>
			<point x="151" y="681"/>
			<point x="43" y="681" type="curve"/>
			<point x="46" y="647" type="line"/>
			<point x="90" y="644" type="line"/>
			<point x="93" y="443"/>
			<point x="93" y="236"/>
			<point x="90" y="35" type="curve"/>
		</contour>
		<contour>
			<point x="275" y="264" type="curve"/>
			<point x="275" y="264" type="line"/>
			<point x="235" y="264"/>
			<point x="200" y="269"/>
			<point x="173" y="273" type="curve"/>
			<point x="173" y="624" type="line"/>
			<point x="260" y="639"/>
			<point x="372" y="635"/>
			<point x="427" y="597" type="curve"/>
			<point x="456" y="563"/>
			<point x="470" y="528"/>
			<point x="470" y="471" type="curve"/>
			<point x="470" y="351"/>
			<point x="385" y="264"/>
		</contour>
	</outline>
</glyph>
<glyph name="Q" format="2">
	<advance width="888"/>
	<unicode hex="0051"/>
	<outline>
		<contour>
			<point x="967" y="-159" type="curve"/>
			<point x="967" y="-159" type="line"/>
			<point x="1038" y="-159"/>
			<point x="1098" y="-144"/>
			<point x="1148" y="-121" type="curve"/>
			<point x="1148" y="-87" type="line"/>
			<point x="1113" y="-102"/>
			<point x="1068" y="-118"/>
			<point x="1024" y="-118" type="curve"/>
			<point x="911" y="-118"/>
			<point x="796" y="-41"/>
			<point x="712" y="-2" type="curve"/>
			<point x="558" y="9" type="line"/>
			<point x="694" y="52"/>
			<point x="822" y="164"/>
			<point x="822" y="339" type="curve"/>
			<point x="822" y="577"/>
			<point x="612" y="709"/>
			<point x="434" y="709" type="curve"/>
			<point x="256" y="709"/>
			<point x="40" y="587"/>
			<point x="40" y="349" type="curve"/>
			<point x="40" y="111"/>
			<point x="258" y="-11"/>
			<point x="436" y="-11" type="curve"/>
			<point x="445" y="-11" type="line" smooth="yes"/>
			<point x="665" y="-10"/>
			<point x="766" y="-159"/>
		</contour>
		<contour>
			<point x="436" y="19" type="curve"/>
			<point x="436" y="19" type="line"/>
			<point x="260" y="19"/>
			<point x="135" y="174"/>
			<point x="135" y="349" type="curve"/>
			<point x="135" y="523"/>
			<point x="258" y="674"/>
			<point x="434" y="674" type="curve"/>
			<point x="610" y="674"/>
			<point x="727" y="523"/>
			<point x="727" y="349" type="curve"/>
			<point x="727" y="154"/>
			<point x="612" y="19"/>
		</contour>
	</outline>
</glyph>
<glyph name="R" format="2">
	<advance width="599"/>
	<unicode hex="0052"/>
	<outline>
		<contour>
			<point x="442" y="-2" type="curve"/>
			<point x="492" y="0"/>
			<point x="539" y="0"/>
			<point x="589" y="0" type="curve"/>
			<point x="589" y="35" type="line"/>
			<point x="534" y="42"/>
			<point x="510" y="45"/>
			<point x="470" y="105" type="curve" smooth="yes"/>
			<point x="323" y="326" type="line"/>
			<point x="406" y="333"/>
			<point x="540" y="378"/>
			<point x="540" y="513" type="curve" smooth="yes"/>
			<point x="540" y="634"/>
			<point x="434" y="700"/>
			<point x="274" y="700" type="curve" smooth="yes"/>
			<point x="50" y="700" type="line"/>
			<point x="50" y="665" type="line"/>
			<point x="110" y="665" type="line"/>
			<point x="113" y="464"/>
			<point x="113" y="237"/>
			<point x="110" y="36" type="curve"/>
			<point x="59" y="35" type="line"/>
			<point x="59" y="0" type="line"/>
			<point x="244" y="0" type="line"/>
			<point x="244" y="35" type="line"/>
			<point x="195" y="35" type="line"/>
			<point x="195" y="321" type="line"/>
			<point x="228" y="321" type="line"/>
			<point x="263" y="277"/>
			<point x="388" y="91"/>
		</contour>
		<contour>
			<point x="195" y="356" type="line"/>
			<point x="195" y="663" type="line"/>
			<point x="329" y="670"/>
			<point x="455" y="647"/>
			<point x="455" y="508" type="curve" smooth="yes"/>
			<point x="455" y="396"/>
			<point x="376" y="356"/>
			<point x="258" y="356" type="curve" smooth="yes"/>
		</contour>
	</outline>
</glyph>
<glyph name="S" format="2">
	<advance width="556"/>
	<unicode hex="0053"/>
	<outline>
		<contour>
			<point x="283" y="-9" type="curve"/>
			<point x="283" y="-9" type="line"/>
			<point x="438" y="-9"/>
			<point x="526" y="86"/>
			<point x="526" y="193" type="curve"/>
			<point x="526" y="321"/>
			<point x="421" y="355"/>
			<point x="311" y="401" type="curve"/>
			<point x="218" y="440"/>
			<point x="91" y="475"/>
			<point x="91" y="558" type="curve"/>
			<point x="91" y="608"/>
			<point x="129" y="671"/>
			<point x="241" y="671" type="curve"/>
			<point x="339" y="671"/>
			<point x="439" y="607"/>
			<point x="441" y="530" type="curve"/>
			<point x="465" y="527" type="line"/>
			<point x="478" y="573"/>
			<point x="488" y="600"/>
			<point x="501" y="636" type="curve"/>
			<point x="459" y="669"/>
			<point x="376" y="710"/>
			<point x="279" y="710" type="curve"/>
			<point x="136" y="710"/>
			<point x="20" y="640"/>
			<point x="20" y="530" type="curve"/>
			<point x="20" y="429"/>
			<point x="100" y="384"/>
			<point x="274" y="321" type="curve"/>
			<point x="388" y="280"/>
			<point x="470" y="237"/>
			<point x="470" y="158" type="curve"/>
			<point x="470" y="79"/>
			<point x="409" y="35"/>
			<point x="309" y="35" type="curve"/>
			<point x="226" y="35"/>
			<point x="96" y="81"/>
			<point x="97" y="178" type="curve"/>
			<point x="76" y="183" type="line"/>
			<point x="26" y="82" type="line"/>
			<point x="70" y="34"/>
			<point x="160" y="-9"/>
		</contour>
	</outline>
</glyph>
<glyph name="T" format="2">
	<advance width="669"/>
	<unicode hex="0054"/>
	<outline>
		<contour>
			<point x="222" y="37" type="line"/>
			<point x="222" y="2" type="line"/>
			<point x="437" y="2" type="line"/>
			<point x="437" y="37" type="line"/>
			<point x="374" y="37" type="line"/>
			<point x="371" y="233"/>
			<point x="371" y="439"/>
			<point x="374" y="635" type="curve"/>
			<point x="619" y="635" type="line"/>
			<point x="624" y="575" type="line"/>
			<point x="659" y="575" type="line"/>
			<point x="659" y="700" type="line"/>
			<point x="10" y="700" type="line"/>
			<point x="10" y="575" type="line"/>
			<point x="45" y="575" type="line"/>
			<point x="50" y="635" type="line"/>
			<point x="284" y="635" type="line"/>
			<point x="287" y="439"/>
			<point x="287" y="233"/>
			<point x="284" y="37" type="curve"/>
		</contour>
	</outline>
</glyph>
<glyph name="U" format="2">
	<advance width="736"/>
	<unicode hex="0055"/>
	<outline>
		<contour>
			<point x="552" y="-10" type="line"/>
			<point x="561" y="-18" type="line"/>
			<point x="706" y="27" type="line"/>
			<point x="706" y="61" type="line"/>
			<point x="635" y="48" type="line"/>
			<point x="642" y="700" type="line"/>
			<point x="507" y="700" type="line"/>
			<point x="507" y="665" type="line"/>
			<point x="552" y="665" type="line"/>
			<point x="552" y="122" type="line"/>
			<point x="518" y="87"/>
			<point x="465" y="44"/>
			<point x="373" y="44" type="curve"/>
			<point x="233" y="44"/>
			<point x="188" y="121"/>
			<point x="188" y="251" type="curve"/>
			<point x="188" y="700" type="line"/>
			<point x="40" y="700" type="line"/>
			<point x="40" y="665" type="line"/>
			<point x="98" y="665" type="line"/>
			<point x="98" y="231" type="line" smooth="yes"/>
			<point x="98" y="61"/>
			<point x="193" y="-10"/>
			<point x="343" y="-10" type="curve"/>
			<point x="443" y="-10"/>
			<point x="517" y="49"/>
			<point x="556" y="81" type="curve"/>
		</contour>
	</outline>
</glyph>
<glyph name="V" format="2">
	<advance width="715"/>
	<unicode hex="0056"/>
	<outline>
		<contour>
			<point x="347" y="-10" type="line"/>
			<point x="365" y="-10" type="line"/>
			<point x="474" y="221"/>
			<point x="667" y="659"/>
			<point x="710" y="684" type="curve"/>
			<point x="710" y="700" type="line"/>
			<point x="524" y="700" type="line"/>
			<point x="524" y="665" type="line"/>
			<point x="585" y="665" type="line"/>
			<point x="337" y="135" type="line"/>
			<point x="110" y="665" type="line"/>
			<point x="155" y="665" type="line"/>
			<point x="155" y="700" type="line"/>
			<point x="5" y="700" type="line"/>
			<point x="5" y="665" type="line"/>
			<point x="50" y="665" type="line"/>
		</contour>
	</outline>
</glyph>
<glyph name="W" format="2">
	<advance width="1018"/>
	<unicode hex="0057"/>
	<outline>
		<contour>
			<point x="345" y="-10" type="curve"/>
			<point x="345" y="-10" type="line"/>
			<point x="373" y="-10" type="line"/>
			<point x="525" y="319" type="line"/>
			<point x="609" y="122" type="line" smooth="yes"/>
			<point x="620" y="97"/>
			<point x="647" y="41"/>
			<point x="664" y="-10" type="curve"/>
			<point x="692" y="-10" type="line"/>
			<point x="1013" y="685" type="line"/>
			<point x="1013" y="700" type="line"/>
			<point x="836" y="700" type="line"/>
			<point x="836" y="665" type="line"/>
			<point x="891" y="664" type="line"/>
			<point x="659" y="122" type="line"/>
			<point x="553" y="380" type="line"/>
			<point x="694" y="685" type="line"/>
			<point x="694" y="700" type="line"/>
			<point x="517" y="700" type="line"/>
			<point x="517" y="665" type="line"/>
			<point x="572" y="664" type="line"/>
			<point x="503" y="502" type="line"/>
			<point x="435" y="665" type="line"/>
			<point x="475" y="665" type="line"/>
			<point x="475" y="700" type="line"/>
			<point x="324" y="700" type="line"/>
			<point x="324" y="665" type="line"/>
			<point x="378" y="665" type="line"/>
			<point x="475" y="437" type="line"/>
			<point x="340" y="122" type="line"/>
			<point x="116" y="665" type="line"/>
			<point x="156" y="665" type="line"/>
			<point x="156" y="700" type="line"/>
			<point x="5" y="700" type="line"/>
			<point x="5" y="665" type="line"/>
			<point x="59" y="665" type="line"/>
			<point x="290" y="122" type="line" smooth="yes"/>
			<point x="301" y="97"/>
			<point x="328" y="41"/>
		</contour>
	</outline>
</glyph>
<glyph name="X" format="2">
	<advance width="678"/>
	<unicode hex="0058"/>
	<outline>
		<contour>
			<point x="21" y="35" type="line"/>
			<point x="21" y="0" type="line"/>
			<point x="174" y="0" type="line"/>
			<point x="174" y="35" type="line"/>
			<point x="135" y="35" type="line"/>
			<point x="321" y="292" type="line"/>
			<point x="496" y="35" type="line"/>
			<point x="445" y="35" type="line"/>
			<point x="445" y="0" type="line"/>
			<point x="668" y="0" type="line"/>
			<point x="668" y="35" type="line"/>
			<point x="621" y="35" type="line"/>
			<point x="385" y="377" type="line"/>
			<point x="598" y="665" type="line"/>
			<point x="654" y="665" type="line"/>
			<point x="654" y="700" type="line"/>
			<point x="477" y="700" type="line"/>
			<point x="477" y="665" type="line"/>
			<point x="526" y="664" type="line"/>
			<point x="352" y="417" type="line"/>
			<point x="184" y="664" type="line"/>
			<point x="223" y="665" type="line"/>
			<point x="223" y="700" type="line"/>
			<point x="10" y="700" type="line"/>
			<point x="10" y="665" type="line"/>
			<point x="67" y="664" type="line"/>
			<point x="290" y="338" type="line"/>
			<point x="73" y="35" type="line"/>
		</contour>
	</outline>
</glyph>
<glyph name="Y" format="2">
	<advance width="615"/>
	<unicode hex="0059"/>
	<outline>
		<contour>
			<point x="183" y="35" type="line"/>
			<point x="183" y="0" type="line"/>
			<point x="408" y="0" type="line"/>
			<point x="408" y="35" type="line"/>
			<point x="343" y="35" type="line"/>
			<point x="340" y="319" type="line"/>
			<point x="533" y="665" type="line"/>
			<point x="610" y="665" type="line"/>
			<point x="610" y="700" type="line"/>
			<point x="495" y="700" type="line"/>
			<point x="320" y="370" type="line"/>
			<point x="145" y="700" type="line"/>
			<point x="5" y="700" type="line"/>
			<point x="5" y="665" type="line"/>
			<point x="65" y="665" type="line"/>
			<point x="256" y="323" type="line"/>
			<point x="253" y="35" type="line"/>
		</contour>
	</outline>
</glyph>
<glyph name="Z" format="2">
	<advance width="708"/>
	<unicode hex="005A"/>
	<outline>
		<contour>
			<point x="541" y="-9" type="curve"/>
			<point x="597" y="32"/>
			<point x="635" y="76"/>
			<point x="677" y="132" type="curve"/>
			<point x="660" y="150" type="line"/>
			<point x="628" y="124"/>
			<point x="602" y="85"/>
			<point x="540" y="85" type="curve" smooth="yes"/>
			<point x="422" y="85"/>
			<point x="362" y="141"/>
			<point x="206" y="169" type="curve"/>
			<point x="698" y="683" type="line"/>
			<point x="671" y="702" type="line"/>
			<point x="629" y="666"/>
			<point x="597" y="638"/>
			<point x="532" y="638" type="curve" smooth="yes"/>
			<point x="437" y="638"/>
			<point x="315" y="716"/>
			<point x="202" y="716" type="curve"/>
			<point x="148" y="690"/>
			<point x="92" y="646"/>
			<point x="32" y="598" type="curve"/>
			<point x="55" y="576" type="line"/>
			<point x="105" y="610"/>
			<point x="135" y="634"/>
			<point x="157" y="637" type="curve"/>
			<point x="249" y="638"/>
			<point x="368" y="582"/>
			<point x="507" y="542" type="curve"/>
			<point x="10" y="23" type="line"/>
			<point x="35" y="0" type="line"/>
			<point x="132" y="86" type="line"/>
			<point x="283" y="96"/>
			<point x="432" y="-9"/>
		</contour>
	</outline>
</glyph>
<glyph name="a" format="2">
	<advance width="377"/>
	<unicode hex="0061"/>
	<outline>
		<contour>
			<point x="115" y="-10" type="curve"/>
			<point x="138" y="10"/>
			<point x="188" y="59"/>
			<point x="227" y="93" type="curve"/>
			<point x="234" y="32"/>
			<point x="267" y="-10"/>
			<point x="309" y="-10" type="curve"/>
			<point x="322" y="-5"/>
			<point x="354" y="29"/>
			<point x="372" y="56" type="curve"/>
			<point x="367" y="72" type="line"/>
			<point x="322" y="56"/>
			<point x="307" y="69"/>
			<point x="307" y="116" type="curve" smooth="yes"/>
			<point x="307" y="178"/>
			<point x="309" y="309"/>
			<point x="311" y="359" type="curve" smooth="yes"/>
			<point x="313" y="414"/>
			<point x="274" y="460"/>
			<point x="214" y="460" type="curve" smooth="yes"/>
			<point x="175" y="460"/>
			<point x="63" y="387"/>
			<point x="31" y="366" type="curve"/>
			<point x="44" y="340" type="line"/>
			<point x="98" y="371"/>
			<point x="129" y="392"/>
			<point x="165" y="392" type="curve" smooth="yes"/>
			<point x="202" y="392"/>
			<point x="227" y="377"/>
			<point x="227" y="347" type="curve" smooth="yes"/>
			<point x="227" y="282" type="line"/>
			<point x="216" y="272"/>
			<point x="201" y="265"/>
			<point x="186" y="257" type="curve" smooth="yes"/>
			<point x="76" y="198"/>
			<point x="30" y="159"/>
			<point x="30" y="101" type="curve" smooth="yes"/>
			<point x="30" y="51"/>
			<point x="59" y="16"/>
		</contour>
		<contour>
			<point x="136" y="65" type="curve" smooth="yes"/>
			<point x="111" y="65"/>
			<point x="90" y="82"/>
			<point x="90" y="118" type="curve" smooth="yes"/>
			<point x="90" y="163"/>
			<point x="143" y="218"/>
			<point x="227" y="246" type="curve"/>
			<point x="227" y="128" type="line"/>
			<point x="204" y="101"/>
			<point x="165" y="65"/>
		</contour>
	</outline>
</glyph>
<glyph name="b" format="2">
	<advance width="444"/>
	<unicode hex="0062"/>
	<outline>
		<contour>
			<point x="200" y="-10" type="curve"/>
			<point x="200" y="-10" type="line"/>
			<point x="247" y="13"/>
			<point x="424" y="117"/>
			<point x="424" y="262" type="curve"/>
			<point x="424" y="380"/>
			<point x="344" y="448"/>
			<point x="271" y="460" type="curve"/>
			<point x="136" y="391" type="line"/>
			<point x="136" y="587" type="line" smooth="yes"/>
			<point x="136" y="658"/>
			<point x="140" y="699"/>
			<point x="144" y="740" type="curve"/>
			<point x="133" y="748" type="line"/>
			<point x="81" y="718"/>
			<point x="51" y="697"/>
			<point x="15" y="675" type="curve"/>
			<point x="15" y="635" type="line"/>
			<point x="56" y="660" type="line"/>
			<point x="56" y="156" type="line" smooth="yes"/>
			<point x="56" y="52"/>
			<point x="151" y="10"/>
		</contour>
		<contour>
			<point x="234" y="65" type="curve"/>
			<point x="234" y="65" type="line"/>
			<point x="181" y="65"/>
			<point x="136" y="123"/>
			<point x="136" y="196" type="curve"/>
			<point x="136" y="364" type="line"/>
			<point x="159" y="376"/>
			<point x="186" y="386"/>
			<point x="222" y="386" type="curve"/>
			<point x="281" y="386"/>
			<point x="349" y="325"/>
			<point x="349" y="232" type="curve"/>
			<point x="349" y="145"/>
			<point x="298" y="65"/>
		</contour>
	</outline>
</glyph>
<glyph name="c" format="2">
	<advance width="354"/>
	<unicode hex="0063"/>
	<outline>
		<contour>
			<point x="235" y="-10" type="curve"/>
			<point x="235" y="-10" type="line"/>
			<point x="270" y="18"/>
			<point x="308" y="41"/>
			<point x="344" y="73" type="curve"/>
			<point x="338" y="103" type="line"/>
			<point x="308" y="84"/>
			<point x="265" y="74"/>
			<point x="245" y="74" type="curve"/>
			<point x="165" y="74"/>
			<point x="108" y="140"/>
			<point x="108" y="261" type="curve"/>
			<point x="108" y="310"/>
			<point x="114" y="374"/>
			<point x="149" y="403" type="curve"/>
			<point x="185" y="403"/>
			<point x="241" y="375"/>
			<point x="278" y="355" type="curve"/>
			<point x="343" y="400" type="line"/>
			<point x="343" y="410" type="line"/>
			<point x="300" y="423"/>
			<point x="229" y="456"/>
			<point x="201" y="460" type="curve"/>
			<point x="174" y="460"/>
			<point x="90" y="397"/>
			<point x="75" y="380" type="curve"/>
			<point x="59" y="350"/>
			<point x="40" y="293"/>
			<point x="40" y="211" type="curve"/>
			<point x="40" y="74"/>
			<point x="103" y="1"/>
		</contour>
	</outline>
</glyph>
<glyph name="d" format="2">
	<advance width="485"/>
	<unicode hex="0064"/>
	<outline>
		<contour>
			<point x="215" y="-10" type="curve"/>
			<point x="344" y="79" type="line"/>
			<point x="342" y="-5" type="line"/>
			<point x="348" y="-10" type="line"/>
			<point x="394" y="9"/>
			<point x="422" y="23"/>
			<point x="470" y="38" type="curve"/>
			<point x="470" y="68" type="line"/>
			<point x="424" y="62" type="line"/>
			<point x="419" y="208"/>
			<point x="422" y="491"/>
			<point x="430" y="707" type="curve"/>
			<point x="421" y="710" type="line"/>
			<point x="281" y="644" type="line"/>
			<point x="281" y="614" type="line"/>
			<point x="344" y="634" type="line"/>
			<point x="344" y="421" type="line"/>
			<point x="321" y="427"/>
			<point x="296" y="430"/>
			<point x="273" y="430" type="curve" smooth="yes"/>
			<point x="138" y="430"/>
			<point x="40" y="327"/>
			<point x="40" y="192" type="curve" smooth="yes"/>
			<point x="40" y="82"/>
			<point x="105" y="-10"/>
		</contour>
		<contour>
			<point x="240" y="65" type="curve" smooth="yes"/>
			<point x="155" y="65"/>
			<point x="100" y="143"/>
			<point x="100" y="233" type="curve" smooth="yes"/>
			<point x="100" y="326"/>
			<point x="168" y="390"/>
			<point x="240" y="390" type="curve" smooth="yes"/>
			<point x="284" y="390"/>
			<point x="323" y="359"/>
			<point x="345" y="334" type="curve"/>
			<point x="345" y="122" type="line"/>
			<point x="324" y="96"/>
			<point x="277" y="65"/>
		</contour>
	</outline>
</glyph>
<glyph name="e" format="2">
	<advance width="337"/>
	<unicode hex="0065"/>
	<outline>
		<contour>
			<point x="235" y="-10" type="curve"/>
			<point x="327" y="93" type="line"/>
			<point x="307" y="109" type="line"/>
			<point x="287" y="91"/>
			<point x="259" y="75"/>
			<point x="231" y="75" type="curve" smooth="yes"/>
			<point x="164" y="75"/>
			<point x="120" y="117"/>
			<point x="101" y="177" type="curve"/>
			<point x="317" y="319" type="line"/>
			<point x="303" y="396"/>
			<point x="246" y="453"/>
			<point x="185" y="461" type="curve"/>
			<point x="98" y="409"/>
			<point x="30" y="331"/>
			<point x="30" y="208" type="curve" smooth="yes"/>
			<point x="30" y="117"/>
			<point x="75" y="-7"/>
		</contour>
		<contour>
			<point x="94" y="205" type="line"/>
			<point x="91" y="221"/>
			<point x="90" y="238"/>
			<point x="90" y="256" type="curve" smooth="yes"/>
			<point x="90" y="319"/>
			<point x="121" y="376"/>
			<point x="148" y="396" type="curve"/>
			<point x="164" y="396"/>
			<point x="222" y="358"/>
			<point x="232" y="300" type="curve"/>
		</contour>
	</outline>
</glyph>
<glyph name="f" format="2">
	<advance width="303"/>
	<unicode hex="0066"/>
	<outline>
		<contour>
			<point x="57" y="-10" type="curve"/>
			<point x="110" y="-2"/>
			<point x="148" y="1"/>
			<point x="196" y="7" type="curve"/>
			<point x="196" y="37" type="line"/>
			<point x="139" y="33" type="line"/>
			<point x="139" y="390" type="line"/>
			<point x="285" y="390" type="line"/>
			<point x="295" y="430" type="line"/>
			<point x="134" y="430" type="line"/>
			<point x="134" y="475" type="line" smooth="yes"/>
			<point x="134" y="588"/>
			<point x="198" y="651"/>
			<point x="272" y="651" type="curve" smooth="yes"/>
			<point x="322" y="651"/>
			<point x="332" y="618"/>
			<point x="362" y="618" type="curve" smooth="yes"/>
			<point x="376" y="618"/>
			<point x="393" y="624"/>
			<point x="393" y="646" type="curve" smooth="yes"/>
			<point x="393" y="672"/>
			<point x="346" y="693"/>
			<point x="302" y="693" type="curve" smooth="yes"/>
			<point x="150" y="693"/>
			<point x="62" y="509"/>
			<point x="20" y="450" type="curve"/>
			<point x="24" y="440" type="line"/>
			<point x="64" y="440" type="line"/>
			<point x="64" y="290"/>
			<point x="61" y="135"/>
		</contour>
	</outline>
</glyph>
<glyph name="g" format="2">
	<advance width="467"/>
	<unicode hex="0067"/>
	<outline>
		<contour>
			<point x="229" y="-280" type="curve" smooth="yes"/>
			<point x="349" y="-280"/>
			<point x="457" y="-217"/>
			<point x="457" y="-117" type="curve" smooth="yes"/>
			<point x="457" y="-47"/>
			<point x="390" y="0"/>
			<point x="332" y="28" type="curve" smooth="yes"/>
			<point x="278" y="54"/>
			<point x="247" y="69"/>
			<point x="247" y="97" type="curve" smooth="yes"/>
			<point x="247" y="103"/>
			<point x="249" y="110"/>
			<point x="251" y="116" type="curve"/>
			<point x="324" y="147"/>
			<point x="387" y="218"/>
			<point x="388" y="251" type="curve" smooth="yes"/>
			<point x="389" y="288"/>
			<point x="381" y="326"/>
			<point x="363" y="358" type="curve"/>
			<point x="448" y="359" type="line"/>
			<point x="444" y="414" type="line"/>
			<point x="328" y="406" type="line"/>
			<point x="298" y="436"/>
			<point x="257" y="456"/>
			<point x="209" y="460" type="curve"/>
			<point x="164" y="440"/>
			<point x="74" y="383"/>
			<point x="71" y="380" type="curve" smooth="yes"/>
			<point x="54" y="358"/>
			<point x="30" y="316"/>
			<point x="30" y="262" type="curve" smooth="yes"/>
			<point x="30" y="184"/>
			<point x="96" y="121"/>
			<point x="173" y="106" type="curve"/>
			<point x="175" y="85"/>
			<point x="172" y="57"/>
			<point x="172" y="40" type="curve"/>
			<point x="184" y="32"/>
			<point x="197" y="25"/>
			<point x="204" y="21" type="curve"/>
			<point x="93" y="-1"/>
			<point x="10" y="-55"/>
			<point x="10" y="-136" type="curve" smooth="yes"/>
			<point x="10" y="-228"/>
			<point x="109" y="-280"/>
		</contour>
		<contour>
			<point x="239" y="-255" type="curve" smooth="yes"/>
			<point x="149" y="-255"/>
			<point x="91" y="-198"/>
			<point x="91" y="-128" type="curve" smooth="yes"/>
			<point x="91" y="-50"/>
			<point x="156" y="-10"/>
			<point x="229" y="4" type="curve"/>
			<point x="290" y="-21"/>
			<point x="381" y="-71"/>
			<point x="381" y="-147" type="curve" smooth="yes"/>
			<point x="381" y="-207"/>
			<point x="319" y="-255"/>
		</contour>
		<contour>
			<point x="232" y="152" type="curve" smooth="yes"/>
			<point x="152" y="152"/>
			<point x="100" y="222"/>
			<point x="100" y="302" type="curve" smooth="yes"/>
			<point x="100" y="350"/>
			<point x="124" y="394"/>
			<point x="178" y="394" type="curve" smooth="yes"/>
			<point x="258" y="394"/>
			<point x="318" y="321"/>
			<point x="318" y="241" type="curve" smooth="yes"/>
			<point x="318" y="191"/>
			<point x="282" y="152"/>
		</contour>
	</outline>
</glyph>
<glyph name="h" format="2">
	<advance width="540"/>
	<unicode hex="0068"/>
	<outline>
		<contour>
			<point x="271" y="-20" type="line"/>
			<point x="323" y="-20" type="line"/>
			<point x="372" y="23"/>
			<point x="510" y="146"/>
			<point x="510" y="247" type="curve" smooth="yes"/>
			<point x="510" y="367"/>
			<point x="408" y="460"/>
			<point x="298" y="460" type="curve"/>
			<point x="161" y="364" type="line"/>
			<point x="161" y="408" type="line" smooth="yes"/>
			<point x="161" y="499"/>
			<point x="163" y="700"/>
			<point x="168" y="741" type="curve"/>
			<point x="161" y="750" type="line"/>
			<point x="119" y="733"/>
			<point x="73" y="712"/>
			<point x="15" y="693" type="curve"/>
			<point x="19" y="658" type="line"/>
			<point x="81" y="679" type="line"/>
			<point x="81" y="44" type="line"/>
			<point x="28" y="25" type="line"/>
			<point x="29" y="-10" type="line"/>
			<point x="94" y="9"/>
			<point x="151" y="26"/>
			<point x="212" y="41" type="curve"/>
			<point x="211" y="79" type="line"/>
			<point x="161" y="65" type="line"/>
			<point x="161" y="325" type="line"/>
			<point x="192" y="353"/>
			<point x="237" y="380"/>
			<point x="290" y="380" type="curve" smooth="yes"/>
			<point x="350" y="380"/>
			<point x="440" y="327"/>
			<point x="440" y="227" type="curve" smooth="yes"/>
			<point x="440" y="114"/>
			<point x="352" y="44"/>
			<point x="271" y="-10" type="curve"/>
		</contour>
	</outline>
</glyph>
<glyph name="i" format="2">
	<advance width="205"/>
	<unicode hex="0069"/>
	<outline>
		<contour>
			<point x="57" y="-10" type="curve"/>
			<point x="57" y="-10" type="line"/>
			<point x="104" y="4"/>
			<point x="143" y="16"/>
			<point x="190" y="28" type="curve"/>
			<point x="190" y="61" type="line"/>
			<point x="139" y="47" type="line"/>
			<point x="139" y="456" type="line"/>
			<point x="133" y="460" type="line"/>
			<point x="90" y="439"/>
			<point x="66" y="422"/>
			<point x="20" y="401" type="curve"/>
			<point x="20" y="374" type="line"/>
			<point x="57" y="388" type="line"/>
			<point x="61" y="255"/>
			<point x="59" y="123"/>
		</contour>
		<contour>
			<point x="64" y="601" type="line"/>
			<point x="64" y="600" type="line"/>
			<point x="123" y="600" type="line"/>
			<point x="183" y="699" type="line"/>
			<point x="183" y="700" type="line"/>
			<point x="117" y="700" type="line"/>
		</contour>
	</outline>
</glyph>
<glyph name="j" format="2">
	<advance width="250"/>
	<unicode hex="006A"/>
	<outline>
		<contour>
			<point x="-30" y="-280" type="line"/>
			<point x="115" y="-207"/>
			<point x="206" y="-139"/>
			<point x="200" y="-55" type="curve" smooth="yes"/>
			<point x="190" y="85"/>
			<point x="191" y="241"/>
			<point x="200" y="391" type="curve"/>
			<point x="184" y="414"/>
			<point x="149" y="445"/>
			<point x="104" y="460" type="curve"/>
			<point x="2" y="391" type="line"/>
			<point x="5" y="370" type="line"/>
			<point x="11" y="371"/>
			<point x="37" y="384"/>
			<point x="58" y="384" type="curve" smooth="yes"/>
			<point x="74" y="384"/>
			<point x="117" y="367"/>
			<point x="115" y="330" type="curve" smooth="yes"/>
			<point x="110" y="210"/>
			<point x="107" y="90"/>
			<point x="117" y="-30" type="curve" smooth="yes"/>
			<point x="126" y="-137"/>
			<point x="76" y="-179"/>
			<point x="-40" y="-250" type="curve"/>
		</contour>
		<contour>
			<point x="113" y="583" type="line"/>
			<point x="186" y="676" type="line"/>
			<point x="184" y="681" type="line"/>
			<point x="120" y="681" type="line"/>
			<point x="77" y="595" type="line"/>
		</contour>
	</outline>
</glyph>
<glyph name="k" format="2">
	<advance width="492"/>
	<unicode hex="006B"/>
	<outline>
		<contour>
			<point x="371" y="-10" type="curve"/>
			<point x="371" y="-10" type="line"/>
			<point x="410" y="3"/>
			<point x="448" y="16"/>
			<point x="487" y="25" type="curve"/>
			<point x="478" y="54" type="line"/>
			<point x="425" y="44" type="line"/>
			<point x="358" y="125"/>
			<point x="286" y="205"/>
			<point x="220" y="272" type="curve"/>
			<point x="356" y="369" type="line" smooth="yes"/>
			<point x="385" y="390"/>
			<point x="420" y="417"/>
			<point x="442" y="428" type="curve"/>
			<point x="442" y="450" type="line"/>
			<point x="395" y="449"/>
			<point x="348" y="449"/>
			<point x="301" y="450" type="curve"/>
			<point x="301" y="421" type="line"/>
			<point x="364" y="421" type="line"/>
			<point x="158" y="265" type="line"/>
			<point x="158" y="420"/>
			<point x="159" y="588"/>
			<point x="161" y="743" type="curve"/>
			<point x="156" y="749" type="line"/>
			<point x="106" y="734"/>
			<point x="68" y="723"/>
			<point x="15" y="706" type="curve"/>
			<point x="26" y="676" type="line"/>
			<point x="78" y="688" type="line"/>
			<point x="80" y="391"/>
			<point x="79" y="153"/>
			<point x="75" y="-9" type="curve"/>
			<point x="122" y="4"/>
			<point x="168" y="15"/>
			<point x="215" y="26" type="curve"/>
			<point x="215" y="57" type="line"/>
			<point x="158" y="48" type="line"/>
			<point x="158" y="237" type="line"/>
			<point x="235" y="160"/>
			<point x="306" y="77"/>
		</contour>
	</outline>
</glyph>
<glyph name="l" format="2">
	<advance width="228"/>
	<unicode hex="006C"/>
	<outline>
		<contour>
			<point x="66" y="-8" type="curve"/>
			<point x="213" y="22" type="line"/>
			<point x="213" y="52" type="line"/>
			<point x="155" y="44" type="line"/>
			<point x="151" y="236"/>
			<point x="151" y="513"/>
			<point x="161" y="745" type="curve"/>
			<point x="156" y="750" type="line"/>
			<point x="107" y="736"/>
			<point x="66" y="729"/>
			<point x="15" y="716" type="curve"/>
			<point x="26" y="687" type="line"/>
			<point x="75" y="697" type="line"/>
			<point x="75" y="551"/>
			<point x="73" y="67"/>
		</contour>
	</outline>
</glyph>
<glyph name="m" format="2">
	<advance width="704"/>
	<unicode hex="006D"/>
	<outline>
		<contour>
			<point x="55" y="-10" type="line"/>
			<point x="110" y="6"/>
			<point x="164" y="17"/>
			<point x="213" y="30" type="curve"/>
			<point x="213" y="60" type="line"/>
			<point x="140" y="47" type="line"/>
			<point x="140" y="335" type="line"/>
			<point x="163" y="358"/>
			<point x="222" y="390"/>
			<point x="238" y="390" type="curve" smooth="yes"/>
			<point x="268" y="390"/>
			<point x="306" y="361"/>
			<point x="306" y="321" type="curve" smooth="yes"/>
			<point x="306" y="204"/>
			<point x="303" y="97"/>
			<point x="298" y="-10" type="curve"/>
			<point x="349" y="3"/>
			<point x="401" y="19"/>
			<point x="452" y="30" type="curve"/>
			<point x="452" y="60" type="line"/>
			<point x="385" y="49" type="line"/>
			<point x="385" y="338" type="line"/>
			<point x="409" y="361"/>
			<point x="459" y="390"/>
			<point x="479" y="390" type="curve" smooth="yes"/>
			<point x="509" y="390"/>
			<point x="551" y="361"/>
			<point x="551" y="321" type="curve" smooth="yes"/>
			<point x="551" y="204"/>
			<point x="548" y="97"/>
			<point x="545" y="-10" type="curve"/>
			<point x="593" y="4"/>
			<point x="641" y="18"/>
			<point x="689" y="30" type="curve"/>
			<point x="689" y="60" type="line"/>
			<point x="630" y="49" type="line"/>
			<point x="630" y="341" type="line" smooth="yes"/>
			<point x="630" y="401"/>
			<point x="575" y="439"/>
			<point x="503" y="460" type="curve"/>
			<point x="381" y="370" type="line"/>
			<point x="369" y="406"/>
			<point x="330" y="439"/>
			<point x="258" y="460" type="curve"/>
			<point x="139" y="370" type="line"/>
			<point x="139" y="455" type="line"/>
			<point x="131" y="460" type="line"/>
			<point x="91" y="432"/>
			<point x="54" y="408"/>
			<point x="20" y="386" type="curve"/>
			<point x="25" y="355" type="line"/>
			<point x="60" y="373" type="line"/>
		</contour>
	</outline>
</glyph>
<glyph name="n" format="2">
	<advance width="455"/>
	<unicode hex="006E"/>
	<outline>
		<contour>
			<point x="65" y="-10" type="line"/>
			<point x="206" y="28" type="line"/>
			<point x="206" y="59" type="line"/>
			<point x="147" y="46" type="line"/>
			<point x="147" y="336" type="line"/>
			<point x="170" y="359"/>
			<point x="221" y="390"/>
			<point x="255" y="390" type="curve" smooth="yes"/>
			<point x="285" y="390"/>
			<point x="310" y="365"/>
			<point x="310" y="315" type="curve" smooth="yes"/>
			<point x="310" y="208"/>
			<point x="307" y="102"/>
			<point x="305" y="-5" type="curve"/>
			<point x="310" y="-10" type="line"/>
			<point x="357" y="5"/>
			<point x="387" y="16"/>
			<point x="440" y="29" type="curve"/>
			<point x="440" y="59" type="line"/>
			<point x="387" y="49" type="line"/>
			<point x="387" y="355" type="line" smooth="yes"/>
			<point x="387" y="425"/>
			<point x="337" y="459"/>
			<point x="275" y="460" type="curve"/>
			<point x="146" y="371" type="line"/>
			<point x="146" y="455" type="line"/>
			<point x="138" y="460" type="line"/>
			<point x="98" y="429"/>
			<point x="64" y="402"/>
			<point x="20" y="373" type="curve"/>
			<point x="20" y="344" type="line"/>
			<point x="68" y="363" type="line"/>
		</contour>
	</outline>
</glyph>
<glyph name="o" format="2">
	<advance width="478"/>
	<unicode hex="006F"/>
	<outline>
		<contour>
			<point x="239" y="-10" type="curve"/>
			<point x="239" y="-10" type="line"/>
			<point x="356" y="40"/>
			<point x="448" y="131"/>
			<point x="448" y="241" type="curve"/>
			<point x="448" y="364"/>
			<point x="349" y="450"/>
			<point x="239" y="460" type="curve"/>
			<point x="122" y="410"/>
			<point x="30" y="319"/>
			<point x="30" y="209" type="curve"/>
			<point x="30" y="86"/>
			<point x="129" y="0"/>
		</contour>
		<contour>
			<point x="284" y="65" type="curve"/>
			<point x="284" y="65" type="line"/>
			<point x="184" y="65"/>
			<point x="100" y="149"/>
			<point x="100" y="249" type="curve"/>
			<point x="100" y="314"/>
			<point x="137" y="370"/>
			<point x="194" y="390" type="curve"/>
			<point x="294" y="390"/>
			<point x="378" y="301"/>
			<point x="378" y="201" type="curve"/>
			<point x="378" y="136"/>
			<point x="341" y="85"/>
		</contour>
	</outline>
</glyph>
<glyph name="p" format="2">
	<advance width="504"/>
	<unicode hex="0070"/>
	<outline>
		<contour>
			<point x="95" y="-270" type="curve"/>
			<point x="99" y="-275" type="line"/>
			<point x="152" y="-271"/>
			<point x="196" y="-270"/>
			<point x="257" y="-270" type="curve"/>
			<point x="257" y="-240" type="line"/>
			<point x="177" y="-238" type="line"/>
			<point x="177" y="24" type="line"/>
			<point x="223" y="22"/>
			<point x="276" y="17"/>
			<point x="298" y="26" type="curve"/>
			<point x="346" y="55"/>
			<point x="474" y="140"/>
			<point x="474" y="255" type="curve"/>
			<point x="474" y="355"/>
			<point x="414" y="451"/>
			<point x="302" y="460" type="curve"/>
			<point x="181" y="375" type="line"/>
			<point x="181" y="407"/>
			<point x="184" y="447"/>
			<point x="188" y="475" type="curve"/>
			<point x="174" y="482" type="line"/>
			<point x="135" y="459"/>
			<point x="90" y="433"/>
			<point x="32" y="404" type="curve"/>
			<point x="39" y="374" type="line"/>
			<point x="101" y="404" type="line"/>
			<point x="101" y="94" type="line"/>
			<point x="79" y="94" type="line"/>
			<point x="20" y="31" type="line"/>
			<point x="27" y="14" type="line"/>
			<point x="49" y="24"/>
			<point x="84" y="29"/>
			<point x="101" y="26" type="curve"/>
			<point x="101" y="-68"/>
			<point x="97" y="-168"/>
		</contour>
		<contour>
			<point x="264" y="86" type="curve"/>
			<point x="264" y="86" type="line"/>
			<point x="232" y="86"/>
			<point x="197" y="89"/>
			<point x="178" y="92" type="curve"/>
			<point x="182" y="343" type="line"/>
			<point x="195" y="356"/>
			<point x="233" y="377"/>
			<point x="268" y="377" type="curve"/>
			<point x="341" y="377"/>
			<point x="414" y="321"/>
			<point x="414" y="225" type="curve"/>
			<point x="414" y="140"/>
			<point x="346" y="86"/>
		</contour>
	</outline>
</glyph>
<glyph name="q" format="2">
	<advance width="468"/>
	<unicode hex="0071"/>
	<outline>
		<contour>
			<point x="247" y="-290" type="line"/>
			<point x="319" y="-275"/>
			<point x="391" y="-266"/>
			<point x="463" y="-257" type="curve"/>
			<point x="459" y="-227" type="line"/>
			<point x="412" y="-232" type="line"/>
			<point x="412" y="107" type="line" smooth="yes"/>
			<point x="412" y="278"/>
			<point x="413" y="391"/>
			<point x="438" y="464" type="curve"/>
			<point x="427" y="473" type="line"/>
			<point x="402" y="457"/>
			<point x="376" y="435"/>
			<point x="361" y="413" type="curve"/>
			<point x="334" y="434"/>
			<point x="305" y="448"/>
			<point x="253" y="460" type="curve"/>
			<point x="132" y="430"/>
			<point x="30" y="333"/>
			<point x="30" y="201" type="curve" smooth="yes"/>
			<point x="30" y="86"/>
			<point x="112" y="-9"/>
			<point x="228" y="-10" type="curve"/>
			<point x="332" y="87" type="line"/>
			<point x="332" y="-241" type="line"/>
			<point x="247" y="-256" type="line"/>
		</contour>
		<contour>
			<point x="228" y="65" type="curve" smooth="yes"/>
			<point x="158" y="65"/>
			<point x="90" y="141"/>
			<point x="90" y="241" type="curve" smooth="yes"/>
			<point x="90" y="331"/>
			<point x="139" y="390"/>
			<point x="219" y="390" type="curve" smooth="yes"/>
			<point x="269" y="390"/>
			<point x="310" y="364"/>
			<point x="331" y="332" type="curve"/>
			<point x="331" y="143" type="line"/>
			<point x="320" y="106"/>
			<point x="270" y="65"/>
		</contour>
	</outline>
</glyph>
<glyph name="r" format="2">
	<advance width="327"/>
	<unicode hex="0072"/>
	<outline>
		<contour>
			<point x="62" y="-10" type="curve"/>
			<point x="106" y="3"/>
			<point x="149" y="10"/>
			<point x="201" y="21" type="curve"/>
			<point x="201" y="51" type="line"/>
			<point x="148" y="41" type="line"/>
			<point x="149" y="346" type="line"/>
			<point x="162" y="358"/>
			<point x="185" y="372"/>
			<point x="204" y="372" type="curve" smooth="yes"/>
			<point x="229" y="372"/>
			<point x="247" y="359"/>
			<point x="263" y="336" type="curve"/>
			<point x="265" y="336" type="line"/>
			<point x="322" y="398" type="line"/>
			<point x="310" y="418"/>
			<point x="277" y="447"/>
			<point x="240" y="460" type="curve"/>
			<point x="239" y="460" type="line"/>
			<point x="214" y="432"/>
			<point x="184" y="400"/>
			<point x="150" y="376" type="curve"/>
			<point x="150" y="459" type="line"/>
			<point x="144" y="463" type="line"/>
			<point x="101" y="443"/>
			<point x="65" y="422"/>
			<point x="20" y="399" type="curve"/>
			<point x="20" y="369" type="line"/>
			<point x="70" y="389" type="line"/>
			<point x="71" y="348"/>
			<point x="70" y="127"/>
		</contour>
	</outline>
</glyph>
<glyph name="s" format="2">
	<advance width="423"/>
	<unicode hex="0073"/>
	<outline>
		<contour>
			<point x="240" y="-10" type="curve"/>
			<point x="240" y="-10" type="line"/>
			<point x="325" y="-10"/>
			<point x="403" y="69"/>
			<point x="403" y="161" type="curve"/>
			<point x="403" y="245"/>
			<point x="317" y="265"/>
			<point x="228" y="274" type="curve"/>
			<point x="152" y="282"/>
			<point x="104" y="294"/>
			<point x="104" y="349" type="curve"/>
			<point x="104" y="389"/>
			<point x="139" y="422"/>
			<point x="185" y="422" type="curve"/>
			<point x="230" y="422"/>
			<point x="267" y="391"/>
			<point x="301" y="350" type="curve"/>
			<point x="385" y="385" type="line"/>
			<point x="385" y="387" type="line"/>
			<point x="350" y="427"/>
			<point x="298" y="460"/>
			<point x="223" y="460" type="curve"/>
			<point x="133" y="460"/>
			<point x="43" y="408"/>
			<point x="43" y="328" type="curve"/>
			<point x="43" y="248"/>
			<point x="99" y="207"/>
			<point x="218" y="195" type="curve"/>
			<point x="309" y="186"/>
			<point x="348" y="165"/>
			<point x="348" y="117" type="curve"/>
			<point x="348" y="57"/>
			<point x="294" y="29"/>
			<point x="255" y="29" type="curve"/>
			<point x="191" y="29"/>
			<point x="141" y="83"/>
			<point x="113" y="148" type="curve"/>
			<point x="30" y="121" type="line"/>
			<point x="67" y="52"/>
			<point x="126" y="-10"/>
		</contour>
	</outline>
</glyph>
<glyph name="t" format="2">
	<advance width="291"/>
	<unicode hex="0074"/>
	<outline>
		<contour>
			<point x="181" y="-10" type="curve"/>
			<point x="181" y="-10" type="line"/>
			<point x="212" y="-10"/>
			<point x="258" y="32"/>
			<point x="280" y="64" type="curve"/>
			<point x="276" y="70" type="line"/>
			<point x="253" y="61"/>
			<point x="231" y="53"/>
			<point x="204" y="53" type="curve"/>
			<point x="153" y="53"/>
			<point x="144" y="88"/>
			<point x="144" y="178" type="curve"/>
			<point x="144" y="399" type="line"/>
			<point x="271" y="399" type="line"/>
			<point x="281" y="450" type="line"/>
			<point x="145" y="450" type="line"/>
			<point x="154" y="552" type="line"/>
			<point x="139" y="556" type="line"/>
			<point x="110" y="509"/>
			<point x="56" y="451"/>
			<point x="20" y="410" type="curve"/>
			<point x="20" y="399" type="line"/>
			<point x="64" y="399" type="line"/>
			<point x="64" y="140" type="line" smooth="yes"/>
			<point x="64" y="40"/>
			<point x="93" y="-10"/>
		</contour>
	</outline>
</glyph>
<glyph name="u" format="2">
	<advance width="449"/>
	<unicode hex="0075"/>
	<outline>
		<contour>
			<point x="159" y="-10" type="curve"/>
			<point x="299" y="71" type="line"/>
			<point x="299" y="-5" type="line"/>
			<point x="306" y="-10" type="line"/>
			<point x="429" y="54" type="line"/>
			<point x="429" y="84" type="line"/>
			<point x="379" y="62" type="line"/>
			<point x="379" y="455" type="line"/>
			<point x="370" y="460" type="line"/>
			<point x="331" y="442"/>
			<point x="299" y="427"/>
			<point x="256" y="403" type="curve"/>
			<point x="256" y="373" type="line"/>
			<point x="299" y="385" type="line"/>
			<point x="299" y="100" type="line"/>
			<point x="274" y="85"/>
			<point x="229" y="65"/>
			<point x="202" y="65" type="curve" smooth="yes"/>
			<point x="171" y="65"/>
			<point x="138" y="75"/>
			<point x="138" y="158" type="curve" smooth="yes"/>
			<point x="138" y="455" type="line"/>
			<point x="129" y="460" type="line"/>
			<point x="89" y="435"/>
			<point x="57" y="418"/>
			<point x="15" y="395" type="curve"/>
			<point x="15" y="365" type="line"/>
			<point x="58" y="380" type="line"/>
			<point x="58" y="120" type="line" smooth="yes"/>
			<point x="58" y="30"/>
			<point x="89" y="0"/>
		</contour>
	</outline>
</glyph>
<glyph name="v" format="2">
	<advance width="476"/>
	<unicode hex="0076"/>
	<outline>
		<contour>
			<point x="229" y="-20" type="curve"/>
			<point x="243" y="-20" type="line"/>
			<point x="471" y="431" type="line"/>
			<point x="470" y="438" type="line"/>
			<point x="325" y="438" type="line"/>
			<point x="325" y="408" type="line"/>
			<point x="411" y="408" type="line"/>
			<point x="270" y="105" type="line"/>
			<point x="143" y="455" type="line"/>
			<point x="134" y="459" type="line"/>
			<point x="102" y="434"/>
			<point x="59" y="404"/>
			<point x="5" y="367" type="curve"/>
			<point x="18" y="342" type="line"/>
			<point x="76" y="371" type="line"/>
			<point x="124" y="265"/>
			<point x="181" y="118"/>
		</contour>
	</outline>
</glyph>
<glyph name="w" format="2">
	<advance width="689"/>
	<unicode hex="0077"/>
	<outline>
		<contour>
			<point x="257" y="-10" type="curve"/>
			<point x="257" y="-10" type="line"/>
			<point x="267" y="-10" type="line"/>
			<point x="373" y="244" type="line"/>
			<point x="431" y="117" type="line" smooth="yes"/>
			<point x="452" y="71"/>
			<point x="466" y="39"/>
			<point x="480" y="-10" type="curve"/>
			<point x="490" y="-10" type="line"/>
			<point x="555" y="144"/>
			<point x="650" y="402"/>
			<point x="684" y="446" type="curve"/>
			<point x="682" y="450" type="line"/>
			<point x="558" y="450" type="line"/>
			<point x="558" y="420" type="line"/>
			<point x="619" y="418" type="line"/>
			<point x="509" y="125" type="line"/>
			<point x="462" y="238"/>
			<point x="416" y="345"/>
			<point x="365" y="460" type="curve"/>
			<point x="363" y="460" type="line"/>
			<point x="324" y="430"/>
			<point x="283" y="402"/>
			<point x="240" y="374" type="curve"/>
			<point x="251" y="347" type="line"/>
			<point x="305" y="382" type="line"/>
			<point x="356" y="284" type="line"/>
			<point x="286" y="125" type="line"/>
			<point x="238" y="237"/>
			<point x="191" y="351"/>
			<point x="136" y="460" type="curve"/>
			<point x="133" y="460" type="line"/>
			<point x="92" y="429"/>
			<point x="50" y="399"/>
			<point x="5" y="370" type="curve"/>
			<point x="22" y="343" type="line"/>
			<point x="76" y="378" type="line"/>
			<point x="211" y="104" type="line" smooth="yes"/>
			<point x="226" y="74"/>
			<point x="243" y="30"/>
		</contour>
	</outline>
</glyph>
<glyph name="x" format="2">
	<advance width="480"/>
	<unicode hex="0078"/>
	<outline>
		<contour>
			<point x="349" y="-10" type="curve"/>
			<point x="349" y="-10" type="line"/>
			<point x="375" y="-10"/>
			<point x="443" y="21"/>
			<point x="469" y="58" type="curve"/>
			<point x="460" y="79" type="line"/>
			<point x="404" y="44"/>
			<point x="379" y="85"/>
			<point x="332" y="164" type="curve"/>
			<point x="257" y="294" type="line"/>
			<point x="320" y="375" type="line"/>
			<point x="351" y="385"/>
			<point x="383" y="366"/>
			<point x="424" y="360" type="curve"/>
			<point x="437" y="392"/>
			<point x="453" y="416"/>
			<point x="475" y="447" type="curve"/>
			<point x="468" y="452" type="line"/>
			<point x="439" y="442"/>
			<point x="391" y="451"/>
			<point x="340" y="460" type="curve"/>
			<point x="242" y="328" type="line"/>
			<point x="208" y="381" type="line" smooth="yes"/>
			<point x="176" y="431"/>
			<point x="148" y="455"/>
			<point x="104" y="460" type="curve"/>
			<point x="72" y="440"/>
			<point x="48" y="412"/>
			<point x="23" y="368" type="curve"/>
			<point x="39" y="349" type="line"/>
			<point x="59" y="371"/>
			<point x="68" y="390"/>
			<point x="95" y="390" type="curve"/>
			<point x="113" y="390"/>
			<point x="127" y="375"/>
			<point x="145" y="344" type="curve"/>
			<point x="161" y="316"/>
			<point x="176" y="290"/>
			<point x="192" y="261" type="curve"/>
			<point x="5" y="4" type="line"/>
			<point x="6" y="0" type="line"/>
			<point x="51" y="0" type="line"/>
			<point x="210" y="225" type="line"/>
			<point x="269" y="117"/>
			<point x="322" y="17"/>
		</contour>
	</outline>
</glyph>
<glyph name="y" format="2">
	<advance width="440"/>
	<unicode hex="0079"/>
	<outline>
		<contour>
			<point x="31" y="-274" type="line"/>
			<point x="58" y="-271"/>
			<point x="93" y="-270"/>
			<point x="120" y="-270" type="curve"/>
			<point x="435" y="445" type="line"/>
			<point x="435" y="450" type="line"/>
			<point x="387" y="449"/>
			<point x="360" y="449"/>
			<point x="315" y="450" type="curve"/>
			<point x="315" y="420" type="line"/>
			<point x="379" y="420" type="line"/>
			<point x="259" y="135" type="line"/>
			<point x="207" y="242"/>
			<point x="161" y="352"/>
			<point x="115" y="459" type="curve"/>
			<point x="108" y="460" type="line"/>
			<point x="68" y="430"/>
			<point x="43" y="409"/>
			<point x="5" y="381" type="curve"/>
			<point x="9" y="349" type="line"/>
			<point x="56" y="377" type="line"/>
			<point x="218" y="48" type="line"/>
			<point x="169" y="-63" type="line" smooth="yes"/>
			<point x="128" y="-156"/>
			<point x="83" y="-232"/>
			<point x="31" y="-259" type="curve"/>
		</contour>
	</outline>
</glyph>
<glyph name="z" format="2">
	<advance width="451"/>
	<unicode hex="007A"/>
	<outline>
		<contour>
			<point x="46" y="-10" type="line"/>
			<point x="72" y="19"/>
			<point x="90" y="35"/>
			<point x="125" y="35" type="curve" smooth="yes"/>
			<point x="180" y="35"/>
			<point x="298" y="-10"/>
			<point x="358" y="-10" type="curve" smooth="yes"/>
			<point x="373" y="-10"/>
			<point x="411" y="50"/>
			<point x="441" y="86" type="curve"/>
			<point x="424" y="100" type="line"/>
			<point x="396" y="75"/>
			<point x="376" y="65"/>
			<point x="354" y="65" type="curve" smooth="yes"/>
			<point x="313" y="65"/>
			<point x="218" y="89"/>
			<point x="151" y="109" type="curve"/>
			<point x="425" y="441" type="line"/>
			<point x="404" y="455" type="line"/>
			<point x="378" y="434"/>
			<point x="341" y="423"/>
			<point x="305" y="423" type="curve" smooth="yes"/>
			<point x="207" y="423"/>
			<point x="159" y="461"/>
			<point x="94" y="461" type="curve"/>
			<point x="71" y="441"/>
			<point x="43" y="402"/>
			<point x="15" y="345" type="curve"/>
			<point x="38" y="337" type="line"/>
			<point x="53" y="372"/>
			<point x="77" y="390"/>
			<point x="105" y="390" type="curve" smooth="yes"/>
			<point x="152" y="390"/>
			<point x="239" y="345"/>
			<point x="310" y="353" type="curve"/>
			<point x="19" y="5" type="line"/>
		</contour>
	</outline>
</glyph>
<glyph name="paragraph" format="2">
	<advance width="763"/>
	<unicode hex="00B6"/>
	<outline>
		<contour>
			<point x="586" y="-260" type="curve"/>
			<point x="586" y="-260" type="line"/>
			<point x="630" y="-250" type="line"/>
			<point x="618" y="-199"/>
			<point x="607" y="-136"/>
			<point x="605" y="-22" type="curve"/>
			<point x="601" y="203"/>
			<point x="610" y="440"/>
			<point x="616" y="665" type="curve"/>
			<point x="663" y="664" type="line"/>
			<point x="663" y="700" type="line"/>
			<point x="499" y="700" type="line" smooth="yes"/>
			<point x="279" y="700"/>
			<point x="100" y="542"/>
			<point x="100" y="292" type="curve"/>
			<point x="100" y="62"/>
			<point x="231" y="-105"/>
			<point x="451" y="-105" type="curve"/>
			<point x="558" y="-105" type="line"/>
			<point x="568" y="-159"/>
			<point x="575" y="-216"/>
		</contour>
		<contour>
			<point x="485" y="-66" type="curve"/>
			<point x="485" y="-66" type="line"/>
			<point x="305" y="-66"/>
			<point x="250" y="51"/>
			<point x="250" y="301" type="curve"/>
			<point x="250" y="551"/>
			<point x="305" y="655"/>
			<point x="485" y="655" type="curve"/>
			<point x="487" y="421"/>
			<point x="487" y="168"/>
		</contour>
		<contour>
			<point x="564" y="-70" type="line"/>
			<point x="535" y="-70" type="line"/>
			<point x="535" y="660" type="line"/>
			<point x="564" y="660" type="line"/>
		</contour>
	</outline>
</glyph>
<glyph name="ccedilla" format="2">
	<advance width="359"/>
	<unicode hex="00E7"/>
	<outline>
		<contour>
			<point x="111" y="-265" type="line"/>
			<point x="235" y="-265"/>
			<point x="312" y="-179"/>
			<point x="312" y="-127" type="curve" smooth="yes"/>
			<point x="312" y="-96"/>
			<point x="284" y="-83"/>
			<point x="255" y="-71" type="curve" smooth="yes"/>
			<point x="209" y="-52"/>
			<point x="204" y="-39"/>
			<point x="225" y="-7" type="curve"/>
			<point x="260" y="20"/>
			<point x="298" y="44"/>
			<point x="340" y="80" type="curve"/>
			<point x="334" y="107" type="line"/>
			<point x="304" y="85"/>
			<point x="271" y="65"/>
			<point x="231" y="65" type="curve" smooth="yes"/>
			<point x="151" y="65"/>
			<point x="96" y="150"/>
			<point x="96" y="261" type="curve" smooth="yes"/>
			<point x="96" y="320"/>
			<point x="114" y="368"/>
			<point x="136" y="398" type="curve"/>
			<point x="174" y="398"/>
			<point x="241" y="374"/>
			<point x="278" y="358" type="curve"/>
			<point x="349" y="413" type="line"/>
			<point x="349" y="423" type="line"/>
			<point x="295" y="439"/>
			<point x="233" y="459"/>
			<point x="175" y="460" type="curve"/>
			<point x="85" y="420"/>
			<point x="30" y="320"/>
			<point x="30" y="210" type="curve" smooth="yes"/>
			<point x="30" y="91"/>
			<point x="63" y="5"/>
			<point x="194" y="-8" type="curve"/>
			<point x="172" y="-39"/>
			<point x="152" y="-75"/>
			<point x="152" y="-97" type="curve"/>
			<point x="167" y="-101"/>
			<point x="190" y="-106"/>
			<point x="210" y="-114" type="curve" smooth="yes"/>
			<point x="230" y="-122"/>
			<point x="252" y="-132"/>
			<point x="252" y="-156" type="curve" smooth="yes"/>
			<point x="252" y="-194"/>
			<point x="189" y="-245"/>
			<point x="100" y="-245" type="curve"/>
		</contour>
	</outline>
</glyph>
<glyph name="f_f" format="2">
	<advance width="494"/>
	<unicode hex="FB00"/>
	<outline>
		<contour>
			<point x="47" y="-10" type="curve"/>
			<point x="94" y="-5"/>
			<point x="152" y="2"/>
			<point x="195" y="8" type="curve"/>
			<point x="195" y="38" type="line"/>
			<point x="129" y="32" type="line"/>
			<point x="129" y="390" type="line"/>
			<point x="286" y="390" type="line"/>
			<point x="286" y="389"/>
			<point x="285" y="113"/>
			<point x="283" y="-8" type="curve"/>
			<point x="331" y="-3"/>
			<point x="368" y="7"/>
			<point x="412" y="13" type="curve"/>
			<point x="412" y="43" type="line"/>
			<point x="361" y="39" type="line"/>
			<point x="361" y="390" type="line"/>
			<point x="465" y="390" type="line"/>
			<point x="475" y="435" type="line"/>
			<point x="355" y="435" type="line"/>
			<point x="355" y="561"/>
			<point x="389" y="658"/>
			<point x="458" y="658" type="curve" smooth="yes"/>
			<point x="505" y="658"/>
			<point x="512" y="611"/>
			<point x="545" y="611" type="curve" smooth="yes"/>
			<point x="568" y="611"/>
			<point x="584" y="624"/>
			<point x="584" y="639" type="curve" smooth="yes"/>
			<point x="584" y="663"/>
			<point x="541" y="693"/>
			<point x="488" y="693" type="curve" smooth="yes"/>
			<point x="436" y="693"/>
			<point x="397" y="674"/>
			<point x="365" y="648" type="curve"/>
			<point x="344" y="671"/>
			<point x="309" y="693"/>
			<point x="260" y="693" type="curve" smooth="yes"/>
			<point x="123" y="693"/>
			<point x="60" y="515"/>
			<point x="20" y="470" type="curve"/>
			<point x="23" y="460" type="line"/>
			<point x="54" y="460" type="line"/>
			<point x="55" y="303"/>
			<point x="49" y="147"/>
		</contour>
		<contour>
			<point x="132" y="435" type="line"/>
			<point x="132" y="498" type="line" smooth="yes"/>
			<point x="132" y="609"/>
			<point x="173" y="653"/>
			<point x="230" y="653" type="curve" smooth="yes"/>
			<point x="272" y="653"/>
			<point x="308" y="629"/>
			<point x="327" y="606" type="curve"/>
			<point x="291" y="539"/>
			<point x="282" y="500"/>
			<point x="247" y="435" type="curve"/>
		</contour>
	</outline>
</glyph>
<glyph name="f_f_l" format="2">
	<advance width="741"/>
	<unicode hex="FB04"/>
	<outline>
		<contour>
			<point x="49" y="-10" type="curve"/>
			<point x="49" y="-10" type="line"/>
			<point x="97" y="-1"/>
			<point x="150" y="8"/>
			<point x="198" y="15" type="curve"/>
			<point x="198" y="45" type="line"/>
			<point x="134" y="36" type="line"/>
			<point x="134" y="390" type="line"/>
			<point x="311" y="390" type="line"/>
			<point x="311" y="389"/>
			<point x="305" y="146"/>
			<point x="300" y="-10" type="curve"/>
			<point x="348" y="0"/>
			<point x="407" y="9"/>
			<point x="455" y="15" type="curve"/>
			<point x="455" y="45" type="line"/>
			<point x="386" y="36" type="line"/>
			<point x="386" y="390" type="line"/>
			<point x="496" y="390" type="line"/>
			<point x="506" y="435" type="line"/>
			<point x="380" y="435" type="line"/>
			<point x="380" y="551"/>
			<point x="404" y="653"/>
			<point x="493" y="653" type="curve"/>
			<point x="540" y="653"/>
			<point x="547" y="611"/>
			<point x="580" y="611" type="curve"/>
			<point x="585" y="611" type="line"/>
			<point x="586" y="340"/>
			<point x="583" y="206"/>
			<point x="577" y="-10" type="curve"/>
			<point x="631" y="-1"/>
			<point x="678" y="8"/>
			<point x="726" y="15" type="curve"/>
			<point x="726" y="45" type="line"/>
			<point x="662" y="35" type="line"/>
			<point x="662" y="593" type="line" smooth="yes"/>
			<point x="662" y="645"/>
			<point x="661" y="724"/>
			<point x="680" y="742" type="curve"/>
			<point x="670" y="750" type="line"/>
			<point x="623" y="715" type="line"/>
			<point x="576" y="751" type="line"/>
			<point x="566" y="743" type="line"/>
			<point x="580" y="726"/>
			<point x="584" y="704"/>
			<point x="585" y="678" type="curve"/>
			<point x="568" y="687"/>
			<point x="546" y="693"/>
			<point x="523" y="693" type="curve"/>
			<point x="471" y="693"/>
			<point x="431" y="674"/>
			<point x="400" y="648" type="curve"/>
			<point x="376" y="670"/>
			<point x="334" y="693"/>
			<point x="285" y="693" type="curve"/>
			<point x="128" y="693"/>
			<point x="70" y="518"/>
			<point x="20" y="470" type="curve"/>
			<point x="23" y="460" type="line"/>
			<point x="59" y="460" type="line"/>
			<point x="59" y="435" type="line" smooth="yes"/>
			<point x="56" y="287"/>
			<point x="52" y="138"/>
		</contour>
		<contour>
			<point x="282" y="435" type="curve"/>
			<point x="137" y="435" type="line"/>
			<point x="137" y="498" type="line" smooth="yes"/>
			<point x="137" y="609"/>
			<point x="198" y="643"/>
			<point x="245" y="643" type="curve"/>
			<point x="288" y="643"/>
			<point x="330" y="615"/>
			<point x="350" y="591" type="curve"/>
			<point x="336" y="569" type="line" smooth="yes"/>
			<point x="313" y="532"/>
			<point x="290" y="450"/>
		</contour>
	</outline>
</glyph>
<glyph name="c_t" format="2">
	<advance width="627"/>
	<outline>
		<contour>
			<point x="236" y="-10" type="curve"/>
			<point x="276" y="15"/>
			<point x="328" y="46"/>
			<point x="370" y="79" type="curve"/>
			<point x="382" y="35"/>
			<point x="416" y="-10"/>
			<point x="463" y="-10" type="curve"/>
			<point x="513" y="19"/>
			<point x="575" y="58"/>
			<point x="602" y="72" type="curve"/>
			<point x="598" y="102" type="line"/>
			<point x="557" y="78"/>
			<point x="525" y="65"/>
			<point x="498" y="65" type="curve" smooth="yes"/>
			<point x="460" y="65"/>
			<point x="446" y="88"/>
			<point x="446" y="158" type="curve" smooth="yes"/>
			<point x="446" y="384" type="line"/>
			<point x="613" y="384" type="line"/>
			<point x="617" y="450" type="line"/>
			<point x="447" y="450" type="line"/>
			<point x="447" y="558" type="line" smooth="yes"/>
			<point x="447" y="647"/>
			<point x="383" y="710"/>
			<point x="248" y="710" type="curve" smooth="yes"/>
			<point x="148" y="710"/>
			<point x="97" y="651"/>
			<point x="97" y="598" type="curve" smooth="yes"/>
			<point x="97" y="527"/>
			<point x="179" y="493"/>
			<point x="248" y="455" type="curve"/>
			<point x="264" y="472" type="line"/>
			<point x="199" y="506"/>
			<point x="157" y="550"/>
			<point x="157" y="596" type="curve" smooth="yes"/>
			<point x="157" y="646"/>
			<point x="202" y="684"/>
			<point x="253" y="684" type="curve" smooth="yes"/>
			<point x="354" y="684"/>
			<point x="366" y="608"/>
			<point x="366" y="532" type="curve" smooth="yes"/>
			<point x="366" y="108" type="line"/>
			<point x="335" y="85"/>
			<point x="284" y="65"/>
			<point x="246" y="65" type="curve" smooth="yes"/>
			<point x="146" y="65"/>
			<point x="105" y="130"/>
			<point x="105" y="241" type="curve" smooth="yes"/>
			<point x="105" y="300"/>
			<point x="122" y="363"/>
			<point x="154" y="393" type="curve"/>
			<point x="182" y="393"/>
			<point x="230" y="376"/>
			<point x="295" y="342" type="curve"/>
			<point x="349" y="387" type="line"/>
			<point x="349" y="397" type="line"/>
			<point x="298" y="423"/>
			<point x="243" y="443"/>
			<point x="215" y="453" type="curve"/>
			<point x="128" y="433"/>
			<point x="40" y="346"/>
			<point x="40" y="208" type="curve" smooth="yes"/>
			<point x="40" y="91"/>
			<point x="82" y="-6"/>
		</contour>
	</outline>
</glyph>
<glyph name="f_f_i" format="2">
	<advance width="679"/>
	<outline>
		<contour>
			<point x="277" y="-10" type="curve"/>
			<point x="277" y="-10" type="line"/>
			<point x="334" y="1"/>
			<point x="371" y="8"/>
			<point x="419" y="15" type="curve"/>
			<point x="419" y="45" type="line"/>
			<point x="355" y="37" type="line"/>
			<point x="355" y="390" type="line"/>
			<point x="541" y="390" type="line"/>
			<point x="541" y="228"/>
			<point x="538" y="125"/>
			<point x="531" y="-5" type="curve"/>
			<point x="574" y="3"/>
			<point x="614" y="9"/>
			<point x="664" y="15" type="curve"/>
			<point x="663" y="45" type="line"/>
			<point x="609" y="36" type="line"/>
			<point x="608" y="172"/>
			<point x="609" y="319"/>
			<point x="619" y="455" type="curve"/>
			<point x="614" y="460" type="line"/>
			<point x="565" y="435" type="line"/>
			<point x="360" y="435" type="line"/>
			<point x="360" y="572"/>
			<point x="411" y="651"/>
			<point x="468" y="651" type="curve"/>
			<point x="514" y="651"/>
			<point x="529" y="608"/>
			<point x="559" y="608" type="curve"/>
			<point x="573" y="608"/>
			<point x="588" y="615"/>
			<point x="588" y="637" type="curve"/>
			<point x="588" y="663"/>
			<point x="546" y="693"/>
			<point x="499" y="693" type="curve"/>
			<point x="450" y="693"/>
			<point x="411" y="670"/>
			<point x="378" y="637" type="curve"/>
			<point x="357" y="664"/>
			<point x="316" y="693"/>
			<point x="271" y="693" type="curve"/>
			<point x="139" y="693"/>
			<point x="72" y="529"/>
			<point x="20" y="470" type="curve"/>
			<point x="23" y="460" type="line"/>
			<point x="63" y="460" type="line"/>
			<point x="64" y="249"/>
			<point x="63" y="155"/>
			<point x="54" y="-5" type="curve"/>
			<point x="99" y="1"/>
			<point x="137" y="8"/>
			<point x="203" y="15" type="curve"/>
			<point x="202" y="45" type="line"/>
			<point x="138" y="36" type="line"/>
			<point x="138" y="390" type="line"/>
			<point x="287" y="390" type="line"/>
			<point x="287" y="247"/>
			<point x="285" y="130"/>
		</contour>
		<contour>
			<point x="287" y="434" type="line"/>
			<point x="133" y="434" type="line"/>
			<point x="133" y="475" type="line" smooth="yes"/>
			<point x="133" y="588"/>
			<point x="187" y="651"/>
			<point x="251" y="651" type="curve"/>
			<point x="295" y="651"/>
			<point x="323" y="620"/>
			<point x="338" y="592" type="curve"/>
			<point x="306" y="551"/>
			<point x="278" y="505"/>
			<point x="247" y="470" type="curve"/>
			<point x="250" y="460" type="line"/>
			<point x="287" y="460" type="line"/>
		</contour>
	</outline>
</glyph>
<glyph name="f_i" format="2">
	<advance width="458"/>
	<outline>
		<contour>
			<point x="56" y="-10" type="curve"/>
			<point x="56" y="-10" type="line"/>
			<point x="101" y="-1"/>
			<point x="149" y="8"/>
			<point x="192" y="15" type="curve"/>
			<point x="192" y="45" type="line"/>
			<point x="128" y="38" type="line"/>
			<point x="128" y="390" type="line"/>
			<point x="311" y="390" type="line"/>
			<point x="309" y="298"/>
			<point x="306" y="94"/>
			<point x="304" y="-10" type="curve"/>
			<point x="358" y="-1"/>
			<point x="401" y="8"/>
			<point x="443" y="15" type="curve"/>
			<point x="443" y="45" type="line"/>
			<point x="379" y="39" type="line"/>
			<point x="379" y="177"/>
			<point x="383" y="317"/>
			<point x="389" y="455" type="curve"/>
			<point x="384" y="460" type="line"/>
			<point x="323" y="435" type="line"/>
			<point x="133" y="435" type="line"/>
			<point x="133" y="572"/>
			<point x="184" y="651"/>
			<point x="241" y="651" type="curve"/>
			<point x="287" y="651"/>
			<point x="302" y="608"/>
			<point x="332" y="608" type="curve"/>
			<point x="346" y="608"/>
			<point x="361" y="615"/>
			<point x="361" y="637" type="curve"/>
			<point x="361" y="663"/>
			<point x="319" y="693"/>
			<point x="272" y="693" type="curve"/>
			<point x="150" y="693"/>
			<point x="93" y="552"/>
			<point x="20" y="470" type="curve"/>
			<point x="23" y="460" type="line"/>
			<point x="60" y="460" type="line"/>
			<point x="60" y="407"/>
			<point x="57" y="87"/>
		</contour>
	</outline>
</glyph>
<glyph name="f_l" format="2">
	<advance width="486"/>
	<outline>
		<contour>
			<point x="59" y="-10" type="curve"/>
			<point x="113" y="-1"/>
			<point x="160" y="8"/>
			<point x="202" y="15" type="curve"/>
			<point x="202" y="45" type="line"/>
			<point x="142" y="36" type="line"/>
			<point x="142" y="390" type="line"/>
			<point x="330" y="390" type="line"/>
			<point x="329" y="229"/>
			<point x="327" y="103"/>
			<point x="324" y="-10" type="curve"/>
			<point x="471" y="15" type="line"/>
			<point x="471" y="45" type="line"/>
			<point x="407" y="36" type="line"/>
			<point x="407" y="593" type="line" smooth="yes"/>
			<point x="407" y="645"/>
			<point x="410" y="723"/>
			<point x="429" y="741" type="curve"/>
			<point x="422" y="750" type="line"/>
			<point x="368" y="715" type="line"/>
			<point x="321" y="751" type="line"/>
			<point x="309" y="742" type="line"/>
			<point x="324" y="724"/>
			<point x="328" y="701"/>
			<point x="329" y="673" type="curve"/>
			<point x="313" y="679"/>
			<point x="294" y="683"/>
			<point x="271" y="683" type="curve" smooth="yes"/>
			<point x="119" y="683"/>
			<point x="72" y="549"/>
			<point x="20" y="470" type="curve"/>
			<point x="23" y="460" type="line"/>
			<point x="63" y="460" type="line"/>
			<point x="64" y="239"/>
			<point x="62" y="125"/>
		</contour>
		<contour>
			<point x="137" y="435" type="line"/>
			<point x="137" y="477" type="line" smooth="yes"/>
			<point x="137" y="580"/>
			<point x="157" y="641"/>
			<point x="211" y="641" type="curve" smooth="yes"/>
			<point x="267" y="641"/>
			<point x="278" y="601"/>
			<point x="308" y="601" type="curve" smooth="yes"/>
			<point x="312" y="601"/>
			<point x="322" y="603"/>
			<point x="330" y="606" type="curve"/>
			<point x="330" y="435" type="line"/>
		</contour>
	</outline>
</glyph>
<glyph name="r_a" format="2">
	<advance width="643"/>
	<outline>
		<contour>
			<point x="58" y="-10" type="curve"/>
			<point x="58" y="-10" type="line"/>
			<point x="106" y="5"/>
			<point x="154" y="16"/>
			<point x="202" y="27" type="curve"/>
			<point x="202" y="57" type="line"/>
			<point x="141" y="47" type="line"/>
			<point x="141" y="348" type="line"/>
			<point x="158" y="362"/>
			<point x="186" y="377"/>
			<point x="208" y="377" type="curve"/>
			<point x="228" y="377"/>
			<point x="262" y="346"/>
			<point x="270" y="313" type="curve"/>
			<point x="273" y="313" type="line"/>
			<point x="312" y="343"/>
			<point x="367" y="397"/>
			<point x="406" y="397" type="curve"/>
			<point x="448" y="397"/>
			<point x="484" y="361"/>
			<point x="484" y="331" type="curve"/>
			<point x="484" y="276" type="line"/>
			<point x="385" y="214"/>
			<point x="268" y="162"/>
			<point x="268" y="105" type="curve"/>
			<point x="268" y="52"/>
			<point x="289" y="10"/>
			<point x="350" y="-10" type="curve"/>
			<point x="368" y="0"/>
			<point x="443" y="39"/>
			<point x="484" y="64" type="curve"/>
			<point x="488" y="41"/>
			<point x="500" y="5"/>
			<point x="513" y="-10" type="curve"/>
			<point x="563" y="8"/>
			<point x="606" y="35"/>
			<point x="638" y="61" type="curve"/>
			<point x="624" y="79" type="line"/>
			<point x="572" y="56"/>
			<point x="564" y="65"/>
			<point x="564" y="115" type="curve"/>
			<point x="564" y="177"/>
			<point x="563" y="304"/>
			<point x="566" y="364" type="curve"/>
			<point x="568" y="409"/>
			<point x="494" y="460"/>
			<point x="454" y="460" type="curve"/>
			<point x="429" y="460"/>
			<point x="374" y="424"/>
			<point x="328" y="389" type="curve"/>
			<point x="309" y="423"/>
			<point x="279" y="458"/>
			<point x="247" y="460" type="curve"/>
			<point x="210" y="433"/>
			<point x="181" y="406"/>
			<point x="141" y="377" type="curve"/>
			<point x="141" y="455" type="line"/>
			<point x="132" y="460" type="line"/>
			<point x="89" y="437"/>
			<point x="50" y="416"/>
			<point x="20" y="399" type="curve"/>
			<point x="20" y="369" type="line"/>
			<point x="61" y="384" type="line"/>
			<point x="62" y="253"/>
			<point x="61" y="121"/>
		</contour>
		<contour>
			<point x="393" y="51" type="curve"/>
			<point x="393" y="51" type="line"/>
			<point x="368" y="51"/>
			<point x="338" y="82"/>
			<point x="338" y="119" type="curve"/>
			<point x="338" y="153"/>
			<point x="373" y="192"/>
			<point x="484" y="249" type="curve"/>
			<point x="484" y="95" type="line"/>
			<point x="460" y="76"/>
			<point x="417" y="51"/>
		</contour>
	</outline>
</glyph>
<glyph name="r_o" format="2">
	<advance width="713"/>
	<outline>
		<contour>
			<point x="72" y="-10" type="curve"/>
			<point x="72" y="-10" type="line"/>
			<point x="120" y="5"/>
			<point x="175" y="19"/>
			<point x="223" y="30" type="curve"/>
			<point x="223" y="60" type="line"/>
			<point x="154" y="49" type="line"/>
			<point x="154" y="329" type="line"/>
			<point x="175" y="348"/>
			<point x="220" y="380"/>
			<point x="242" y="380" type="curve"/>
			<point x="264" y="380"/>
			<point x="308" y="339"/>
			<point x="317" y="310" type="curve"/>
			<point x="303" y="281"/>
			<point x="295" y="250"/>
			<point x="295" y="219" type="curve"/>
			<point x="295" y="96"/>
			<point x="382" y="0"/>
			<point x="489" y="-10" type="curve"/>
			<point x="603" y="40"/>
			<point x="683" y="131"/>
			<point x="683" y="231" type="curve"/>
			<point x="683" y="354"/>
			<point x="596" y="450"/>
			<point x="489" y="460" type="curve"/>
			<point x="445" y="441"/>
			<point x="406" y="415"/>
			<point x="374" y="385" type="curve"/>
			<point x="360" y="412"/>
			<point x="315" y="453"/>
			<point x="269" y="460" type="curve"/>
			<point x="230" y="431"/>
			<point x="191" y="399"/>
			<point x="154" y="367" type="curve"/>
			<point x="154" y="455" type="line"/>
			<point x="145" y="460" type="line"/>
			<point x="103" y="440"/>
			<point x="66" y="423"/>
			<point x="20" y="403" type="curve"/>
			<point x="23" y="375" type="line"/>
			<point x="74" y="390" type="line"/>
			<point x="75" y="257"/>
			<point x="75" y="123"/>
		</contour>
		<contour>
			<point x="537" y="65" type="curve"/>
			<point x="537" y="65" type="line"/>
			<point x="439" y="65"/>
			<point x="365" y="159"/>
			<point x="365" y="259" type="curve"/>
			<point x="365" y="324"/>
			<point x="390" y="370"/>
			<point x="445" y="390" type="curve"/>
			<point x="543" y="390"/>
			<point x="613" y="291"/>
			<point x="613" y="191" type="curve"/>
			<point x="613" y="126"/>
			<point x="592" y="85"/>
		</contour>
	</outline>
</glyph>
<glyph name="t_a" format="2">
	<advance width="650"/>
	<outline>
		<contour>
			<point x="171" y="-10" type="curve"/>
			<point x="171" y="-10" type="line"/>
			<point x="283" y="64" type="line"/>
			<point x="297" y="32"/>
			<point x="324" y="4"/>
			<point x="358" y="-10" type="curve"/>
			<point x="381" y="0"/>
			<point x="464" y="47"/>
			<point x="503" y="84" type="curve"/>
			<point x="507" y="55"/>
			<point x="513" y="22"/>
			<point x="545" y="-10" type="curve"/>
			<point x="577" y="4"/>
			<point x="616" y="27"/>
			<point x="645" y="53" type="curve"/>
			<point x="643" y="71" type="line"/>
			<point x="598" y="53"/>
			<point x="580" y="69"/>
			<point x="580" y="115" type="curve"/>
			<point x="580" y="177"/>
			<point x="581" y="289"/>
			<point x="583" y="339" type="curve"/>
			<point x="585" y="394"/>
			<point x="518" y="460"/>
			<point x="436" y="460" type="curve"/>
			<point x="387" y="460"/>
			<point x="291" y="371"/>
			<point x="262" y="344" type="curve"/>
			<point x="277" y="324" type="line"/>
			<point x="313" y="358"/>
			<point x="371" y="392"/>
			<point x="411" y="392" type="curve"/>
			<point x="479" y="392"/>
			<point x="503" y="342"/>
			<point x="503" y="274" type="curve"/>
			<point x="424" y="230"/>
			<point x="319" y="188"/>
			<point x="279" y="145" type="curve"/>
			<point x="272" y="124"/>
			<point x="272" y="103"/>
			<point x="277" y="82" type="curve"/>
			<point x="250" y="68"/>
			<point x="224" y="60"/>
			<point x="198" y="60" type="curve"/>
			<point x="151" y="60"/>
			<point x="144" y="88"/>
			<point x="144" y="128" type="curve"/>
			<point x="144" y="400" type="line"/>
			<point x="301" y="400" type="line"/>
			<point x="311" y="450" type="line"/>
			<point x="147" y="450" type="line"/>
			<point x="177" y="550" type="line"/>
			<point x="164" y="555" type="line"/>
			<point x="115" y="502"/>
			<point x="66" y="453"/>
			<point x="20" y="410" type="curve"/>
			<point x="20" y="400" type="line"/>
			<point x="64" y="400" type="line"/>
			<point x="64" y="70" type="line" smooth="yes"/>
			<point x="64" y="20"/>
			<point x="133" y="-10"/>
		</contour>
		<contour>
			<point x="399" y="65" type="curve"/>
			<point x="399" y="65" type="line"/>
			<point x="367" y="65"/>
			<point x="347" y="92"/>
			<point x="347" y="118" type="curve"/>
			<point x="347" y="155"/>
			<point x="358" y="189"/>
			<point x="503" y="245" type="curve"/>
			<point x="503" y="114" type="line"/>
			<point x="488" y="97"/>
			<point x="448" y="65"/>
		</contour>
	</outline>
</glyph>
<glyph name="t_i" format="2">
	<advance width="481"/>
	<outline>
		<contour>
			<point x="185" y="-10" type="curve"/>
			<point x="232" y="21"/>
			<point x="280" y="48"/>
			<point x="328" y="73" type="curve"/>
			<point x="325" y="-10" type="line"/>
			<point x="372" y="4"/>
			<point x="419" y="16"/>
			<point x="466" y="28" type="curve"/>
			<point x="466" y="58" type="line"/>
			<point x="409" y="47" type="line"/>
			<point x="409" y="455" type="line"/>
			<point x="400" y="460" type="line"/>
			<point x="383" y="450" type="line"/>
			<point x="151" y="450" type="line"/>
			<point x="187" y="556" type="line"/>
			<point x="174" y="561" type="line"/>
			<point x="127" y="502"/>
			<point x="51" y="428"/>
			<point x="20" y="401" type="curve"/>
			<point x="23" y="390" type="line"/>
			<point x="67" y="390" type="line"/>
			<point x="67" y="149" type="line" smooth="yes"/>
			<point x="67" y="59"/>
			<point x="105" y="6"/>
		</contour>
		<contour>
			<point x="228" y="75" type="curve" smooth="yes"/>
			<point x="197" y="75"/>
			<point x="147" y="93"/>
			<point x="147" y="158" type="curve" smooth="yes"/>
			<point x="147" y="390" type="line"/>
			<point x="329" y="390" type="line"/>
			<point x="330" y="268"/>
			<point x="330" y="183"/>
			<point x="328" y="103" type="curve"/>
			<point x="304" y="90"/>
			<point x="256" y="75"/>
		</contour>
		<contour>
			<point x="346" y="600" type="line"/>
			<point x="405" y="600" type="line"/>
			<point x="465" y="699" type="line"/>
			<point x="465" y="700" type="line"/>
			<point x="399" y="700" type="line"/>
			<point x="346" y="601" type="line"/>
		</contour>
	</outline>
</glyph>
<glyph name="z.ss01" format="2">
	<advance width="517"/>
	<outline>
		<contour>
			<point x="263" y="-188" type="curve" smooth="yes"/>
			<point x="358" y="-188"/>
			<point x="450" y="-106"/>
			<point x="450" y="0" type="curve" smooth="yes"/>
			<point x="450" y="134"/>
			<point x="291" y="196"/>
			<point x="177" y="162" type="curve"/>
			<point x="279" y="254"/>
			<point x="399" y="347"/>
			<point x="507" y="439" type="curve"/>
			<point x="495" y="457" type="line"/>
			<point x="416" y="404" type="line"/>
			<point x="312" y="404"/>
			<point x="225" y="460"/>
			<point x="161" y="460" type="curve"/>
			<point x="126" y="440"/>
			<point x="77" y="383"/>
			<point x="47" y="329" type="curve"/>
			<point x="66" y="322" type="line"/>
			<point x="96" y="363"/>
			<point x="131" y="387"/>
			<point x="152" y="387" type="curve" smooth="yes"/>
			<point x="195" y="387"/>
			<point x="276" y="346"/>
			<point x="329" y="334" type="curve"/>
			<point x="20" y="69" type="line"/>
			<point x="35" y="53" type="line"/>
			<point x="103" y="93"/>
			<point x="142" y="107"/>
			<point x="231" y="107" type="curve" smooth="yes"/>
			<point x="283" y="107"/>
			<point x="413" y="74"/>
			<point x="413" y="-27" type="curve" smooth="yes"/>
			<point x="413" y="-94"/>
			<point x="355" y="-144"/>
			<point x="297" y="-144" type="curve" smooth="yes"/>
			<point x="251" y="-144"/>
			<point x="234" y="-127"/>
			<point x="221" y="-89" type="curve"/>
			<point x="162" y="-125" type="line"/>
			<point x="183" y="-163"/>
			<point x="217" y="-188"/>
		</contour>
	</outline>
</glyph>
